<?xml version="1.0" encoding="UTF-8" standalone="no"?>
<!DOCTYPE svg PUBLIC "-//W3C//DTD SVG 1.1//EN" "http://www.w3.org/Graphics/SVG/1.1/DTD/svg11.dtd">
<svg xmlns="http://www.w3.org/2000/svg" version="1.1" viewBox="0 0 1600 1200">
<g stroke-width="2.00" fill="none" stroke-linecap="butt">
<path stroke="#7ae1fe" vector-effect="non-scaling-stroke" d="
  M 1600.00 886.31
  L 1588.81 886.09
  A 2.17 2.13 -22.6 0 1 1587.41 885.53
  Q 1556.51 857.25 1523.16 832.10
  C 1479.04 798.82 1428.02 768.74 1371.73 763.87
  C 1337.96 760.94 1305.08 773.35 1274.74 785.98
  Q 1233.17 803.30 1199.76 816.28
  Q 1118.92 847.72 1033.75 864.21"
/>
<path stroke="#db7d89" vector-effect="non-scaling-stroke" d="
  M 1033.75 864.21
  L 1032.54 850.99"
/>
<path stroke="#eaedef" vector-effect="non-scaling-stroke" d="
  M 1032.54 850.99
  L 1028.11 801.93"
/>
<path stroke="#db7d89" vector-effect="non-scaling-stroke" d="
  M 1028.11 801.93
  L 1023.66 752.79"
/>
<path stroke="#eaedef" vector-effect="non-scaling-stroke" d="
  M 1023.66 752.79
  C 1024.20 751.81 1023.71 750.83 1023.62 749.94
  Q 1021.41 727.39 1019.75 704.79"
/>
<path stroke="#f9f9f1" vector-effect="non-scaling-stroke" d="
  M 1019.75 704.79
  C 1027.81 704.60 1038.88 698.46 1045.30 693.79
  C 1075.83 671.58 1091.43 638.28 1086.87 600.36
  C 1081.05 551.94 1040.82 516.95 992.93 515.15
  Q 982.89 514.77 973.04 516.63
  C 933.65 524.07 903.51 552.81 894.31 592.10
  Q 893.52 595.49 893.14 599.94
  C 892.58 606.59 891.70 613.47 892.21 619.69
  C 894.42 646.71 907.55 673.99 929.95 690.28
  C 938.97 696.84 945.74 701.25 955.42 704.27"
/>
<path stroke="#f8fbfd" vector-effect="non-scaling-stroke" d="
  M 955.42 704.27
  Q 956.46 710.88 955.81 718.81
  Q 954.40 736.06 953.07 746.94
  C 952.95 747.92 953.53 749.04 952.73 750.03
  Q 952.44 750.38 952.35 750.83
  L 952.00 752.57
  Q 951.91 753.03 952.29 752.77
  Q 952.82 752.40 953.25 753.04"
/>
<path stroke="#e77d8b" vector-effect="non-scaling-stroke" d="
  M 953.25 753.04
  L 948.96 798.50"
/>
<path stroke="#f8fbfd" vector-effect="non-scaling-stroke" d="
  M 948.96 798.50
  Q 946.92 800.59 947.05 803.42
  Q 947.20 806.65 947.19 806.77
  Q 946.03 825.34 945.18 843.97"
/>
<path stroke="#96e7fe" vector-effect="non-scaling-stroke" d="
  M 945.18 843.97
  C 920.38 841.53 896.60 847.11 873.81 855.56
  Q 844.69 866.35 811.63 880.56
  Q 811.18 880.76 810.69 880.76
  L 809.00 880.79"
/>
<path stroke="#7ae1fe" vector-effect="non-scaling-stroke" d="
  M 809.00 880.79
  Q 744.43 874.80 684.46 850.24
  C 637.02 830.81 592.33 805.47 548.57 778.93
  C 496.87 747.56 445.62 715.42 393.46 684.81
  Q 365.08 668.16 334.25 658.75
  C 205.73 619.51 98.55 705.22 28.43 802.18"
/>
<path stroke="#96e7fe" vector-effect="non-scaling-stroke" d="
  M 28.43 802.18
  Q 14.38 794.45 1.02 785.84
  Q 0.58 785.56 0.23 785.94
  L 0.00 786.19"
/>
<path stroke="#f0ece4" vector-effect="non-scaling-stroke" d="
  M 1019.75 704.79
  L 1019.21 703.75"
/>
<path stroke="#e27c7e" vector-effect="non-scaling-stroke" d="
  M 1019.21 703.75
  L 1016.75 673.54"
/>
<path stroke="#f5ede4" vector-effect="non-scaling-stroke" d="
  M 1016.75 673.54
  L 1017.18 673.21
  Q 1017.56 672.92 1018.01 673.03
  Q 1021.30 673.86 1024.70 673.34
  A 1.66 1.65 -6.1 0 0 1026.10 671.61
  L 1025.96 669.33
  Q 1025.87 667.96 1024.50 667.93
  L 1017.46 667.75"
/>
<path stroke="#df9789" vector-effect="non-scaling-stroke" d="
  M 1017.46 667.75
  L 1017.50 637.77
  Q 1017.50 637.25 1018.01 637.25
  L 1025.00 637.25
  Q 1025.75 637.25 1025.75 636.50
  L 1025.75 623.54
  Q 1025.75 623.01 1025.22 623.00
  L 1010.96 622.75"
/>
<path stroke="#a7d2d4" vector-effect="non-scaling-stroke" d="
  M 1010.96 622.75
  L 1011.16 598.18
  Q 1011.16 597.64 1010.71 597.93
  C 1009.27 598.86 997.52 598.26 995.00 598.29"
/>
<path stroke="#94cbcf" vector-effect="non-scaling-stroke" d="
  M 995.00 598.29
  L 988.00 598.29"
/>
<path stroke="#a7d2d4" vector-effect="non-scaling-stroke" d="
  M 988.00 598.29
  L 982.75 598.29"
/>
<path stroke="#abdde0" vector-effect="non-scaling-stroke" d="
  M 982.75 598.29
  L 966.48 598.26
  Q 966.17 598.26 966.07 597.96
  L 965.93 597.53
  Q 965.91 597.47 965.86 597.52
  Q 965.75 597.62 965.65 597.73
  Q 965.49 597.89 965.50 598.13
  C 965.67 602.66 965.22 621.84 966.29 623.00"
/>
<path stroke="#df9789" vector-effect="non-scaling-stroke" d="
  M 966.29 623.00
  L 965.50 623.29"
/>
<path stroke="#eb9b8d" vector-effect="non-scaling-stroke" d="
  M 965.50 623.29
  L 952.11 623.34
  Q 951.50 623.35 951.50 623.96
  L 951.50 636.75
  Q 951.50 637.25 952.00 637.25
  L 958.96 637.25
  Q 959.48 637.25 959.48 637.78
  L 959.50 667.96"
/>
<path stroke="#fefaf2" vector-effect="non-scaling-stroke" d="
  M 959.50 667.96
  Q 955.19 667.58 950.93 668.43
  Q 950.43 668.53 950.34 669.03
  C 949.37 674.64 956.96 673.77 960.25 673.54"
/>
<path stroke="#ee7c80" vector-effect="non-scaling-stroke" d="
  M 960.25 673.54
  L 957.50 703.46"
/>
<path stroke="#fefaf2" vector-effect="non-scaling-stroke" d="
  M 957.50 703.46
  L 955.42 704.27"
/>
<path stroke="#eb9b8d" vector-effect="non-scaling-stroke" d="
  M 985.79 570.75
  Q 985.98 571.56 985.25 571.72
  Q 967.33 575.61 965.47 593.96
  A 0.48 0.48 0.0 0 0 965.95 594.49
  L 988.35 594.49"
/>
<path stroke="#df9789" vector-effect="non-scaling-stroke" d="
  M 988.35 594.49
  L 1010.90 594.49
  Q 1011.47 594.49 1011.41 593.93
  Q 1009.55 575.60 991.71 571.73
  Q 991.25 571.63 991.25 571.16
  C 991.25 568.81 991.82 562.02 990.78 560.22
  C 989.61 558.18 986.02 559.03 985.81 561.31
  Q 985.61 563.36 985.79 570.75"
/>
<path stroke="#cb3a30" vector-effect="non-scaling-stroke" d="
  M 988.35 594.49
  L 988.05 572.56
  Q 988.04 572.02 987.58 571.76
  L 985.79 570.75"
/>
<path stroke="#807c73" vector-effect="non-scaling-stroke" d="
  M 1051.60 597.86
  Q 1051.35 598.58 1051.76 599.16
  Q 1052.21 599.79 1052.75 599.24
  Q 1054.49 597.47 1056.78 599.02
  Q 1056.99 599.17 1057.22 599.03
  L 1057.56 598.83
  Q 1058.45 598.30 1057.49 597.93
  L 1049.19 594.73
  Q 1048.87 594.60 1048.69 594.89
  Q 1048.59 595.05 1048.41 595.20
  Q 1048.04 595.51 1048.48 595.71
  L 1051.22 596.95
  Q 1051.82 597.23 1051.60 597.86"
/>
<path stroke="#807c73" vector-effect="non-scaling-stroke" d="
  M 1045.47 601.74
  L 1049.20 601.41
  Q 1049.71 601.36 1049.76 600.86
  C 1049.86 599.89 1045.43 599.89 1044.60 599.78
  Q 1044.14 599.72 1043.88 600.11
  C 1043.55 600.60 1039.49 599.73 1037.59 601.15
  A 0.24 0.24 0.0 0 0 1037.72 601.58
  L 1042.58 601.93
  Q 1043.28 601.98 1043.07 602.65
  L 1042.81 603.45
  Q 1042.65 603.96 1043.19 603.98
  L 1044.43 604.01
  Q 1045.15 604.03 1045.02 603.32
  L 1044.87 602.53
  Q 1044.73 601.80 1045.47 601.74"
/>
<path stroke="#53b6ce" vector-effect="non-scaling-stroke" d="
  M 982.75 598.29
  Q 981.46 603.58 982.42 608.99
  Q 982.46 609.23 982.70 609.26
  Q 982.85 609.28 983.00 609.29"
/>
<path stroke="#abd48c" vector-effect="non-scaling-stroke" d="
  M 983.00 609.29
  L 982.75 609.54"
/>
<path stroke="#a7d8a5" vector-effect="non-scaling-stroke" d="
  M 982.75 609.54
  Q 975.87 613.90 979.69 621.56
  Q 980.09 622.37 979.00 622.96"
/>
<path stroke="#8b7c83" vector-effect="non-scaling-stroke" d="
  M 979.00 622.96
  L 966.29 623.00"
/>
<path stroke="#877177" vector-effect="non-scaling-stroke" d="
  M 1010.96 622.75
  L 994.00 622.96"
/>
<path stroke="#98bd7e" vector-effect="non-scaling-stroke" d="
  M 994.00 622.96
  Q 997.58 617.15 994.49 611.60"
/>
<path stroke="#3ca5bd" vector-effect="non-scaling-stroke" d="
  M 994.49 611.60
  Q 995.35 604.95 995.00 598.29"
/>
<path stroke="#3ca5bd" vector-effect="non-scaling-stroke" d="
  M 988.00 598.29
  L 987.50 607.96"
/>
<path stroke="#a7c980" vector-effect="non-scaling-stroke" d="
  M 987.50 607.96
  Q 985.10 608.14 983.00 609.29"
/>
<path stroke="#85b679" vector-effect="non-scaling-stroke" d="
  M 994.49 611.60
  Q 991.62 608.49 988.00 608.29"
/>
<path stroke="#94c37b" vector-effect="non-scaling-stroke" d="
  M 988.00 608.29
  L 987.50 607.96"
/>
<path stroke="#efdb3b" vector-effect="non-scaling-stroke" d="
  M 988.00 608.29
  L 988.25 622.96"
/>
<path stroke="#de8f35" vector-effect="non-scaling-stroke" d="
  M 988.25 622.96
  Q 984.87 623.62 981.50 622.96"
/>
<path stroke="#faeb57" vector-effect="non-scaling-stroke" d="
  M 981.50 622.96
  Q 981.17 616.15 982.75 609.54"
/>
<path stroke="#cf8233" vector-effect="non-scaling-stroke" d="
  M 994.00 622.96
  L 988.25 622.96"
/>
<path stroke="#da924e" vector-effect="non-scaling-stroke" d="
  M 981.50 622.96
  L 979.00 622.96"
/>
<path stroke="#d48c87" vector-effect="non-scaling-stroke" d="
  M 1017.46 667.75
  L 988.25 668.04"
/>
<path stroke="#de9995" vector-effect="non-scaling-stroke" d="
  M 988.25 668.04
  L 987.50 667.96"
/>
<path stroke="#cb3a30" vector-effect="non-scaling-stroke" d="
  M 987.50 667.96
  Q 988.39 663.45 988.25 658.89
  C 988.00 650.93 988.08 643.00 987.75 635.04"
/>
<path stroke="#82676f" vector-effect="non-scaling-stroke" d="
  M 987.75 635.04
  L 990.60 634.73
  Q 991.25 634.66 991.25 634.00
  L 991.25 626.43
  Q 991.25 625.87 990.69 625.84
  L 987.28 625.71
  Q 986.62 625.68 986.61 626.34
  L 986.50 634.46"
/>
<path stroke="#cb3a30" vector-effect="non-scaling-stroke" d="
  M 986.50 634.46
  L 984.50 634.46"
/>
<path stroke="#877177" vector-effect="non-scaling-stroke" d="
  M 984.50 634.46
  L 984.46 626.46
  Q 984.46 625.89 983.90 625.84
  L 980.93 625.53
  Q 980.32 625.47 980.29 626.08
  L 979.96 631.75"
/>
<path stroke="#cb3a30" vector-effect="non-scaling-stroke" d="
  M 979.96 631.75
  Q 978.72 632.59 978.04 631.50"
/>
<path stroke="#8b7c83" vector-effect="non-scaling-stroke" d="
  M 978.04 631.50
  L 978.00 626.13
  Q 977.99 625.52 977.38 625.51
  L 974.34 625.49
  Q 973.75 625.49 973.75 626.08
  L 973.71 634.25"
/>
<path stroke="#cb3a30" vector-effect="non-scaling-stroke" d="
  M 973.71 634.25
  Q 972.43 633.50 971.50 634.71"
/>
<path stroke="#8b7c83" vector-effect="non-scaling-stroke" d="
  M 971.50 634.71
  L 971.70 626.14
  Q 971.71 625.60 971.17 625.61
  L 967.81 625.66
  Q 967.20 625.67 967.19 626.28
  L 967.00 634.46"
/>
<path stroke="#cb3a30" vector-effect="non-scaling-stroke" d="
  M 967.00 634.46
  L 965.00 634.71"
/>
<path stroke="#df9789" vector-effect="non-scaling-stroke" d="
  M 965.00 634.71
  L 965.00 625.79"
/>
<path stroke="#cb3a30" vector-effect="non-scaling-stroke" d="
  M 965.00 625.79
  Q 965.88 624.62 965.50 623.29"
/>
<path stroke="#877177" vector-effect="non-scaling-stroke" d="
  M 1004.1530 626.2830
  A 0.80 0.80 0.0 0 0 1003.3433 625.4929
  L 1000.4835 625.5278
  A 0.80 0.80 0.0 0 0 999.6934 626.3375
  L 999.7870 633.9970
  A 0.80 0.80 0.0 0 0 1000.5967 634.7871
  L 1003.4565 634.7522
  A 0.80 0.80 0.0 0 0 1004.2466 633.9425
  L 1004.1530 626.2830"
/>
<path stroke="#877177" vector-effect="non-scaling-stroke" d="
  M 1010.7631 626.4179
  A 0.85 0.85 0.0 0 0 1009.9160 625.5649
  L 1007.1161 625.5551
  A 0.85 0.85 0.0 0 0 1006.2631 626.4022
  L 1006.2369 633.9021
  A 0.85 0.85 0.0 0 0 1007.0840 634.7551
  L 1009.8839 634.7649
  A 0.85 0.85 0.0 0 0 1010.7369 633.9178
  L 1010.7631 626.4179"
/>
<path stroke="#df9789" vector-effect="non-scaling-stroke" d="
  M 1017.25 626.02
  A 0.48 0.48 0.0 0 0 1016.77 625.54
  L 1013.23 625.54
  A 0.48 0.48 0.0 0 0 1012.75 626.02
  L 1012.75 634.28
  A 0.48 0.48 0.0 0 0 1013.23 634.76
  L 1016.77 634.76
  A 0.48 0.48 0.0 0 0 1017.25 634.28
  L 1017.25 626.02"
/>
<path stroke="#df9789" vector-effect="non-scaling-stroke" d="
  M 1023.2213 626.0268
  A 0.51 0.51 0.0 0 0 1022.7078 625.5204
  L 1019.9279 625.5398
  A 0.51 0.51 0.0 0 0 1019.4214 626.0534
  L 1019.4787 634.2532
  A 0.51 0.51 0.0 0 0 1019.9922 634.7596
  L 1022.7721 634.7402
  A 0.51 0.51 0.0 0 0 1023.2786 634.2266
  L 1023.2213 626.0268"
/>
<path stroke="#877177" vector-effect="non-scaling-stroke" d="
  M 997.7637 626.3874
  A 0.64 0.64 0.0 0 0 997.1259 625.7452
  L 994.1660 625.7349
  A 0.64 0.64 0.0 0 0 993.5237 626.3726
  L 993.4963 634.2326
  A 0.64 0.64 0.0 0 0 994.1341 634.8748
  L 997.0940 634.8851
  A 0.64 0.64 0.0 0 0 997.7363 634.2474
  L 997.7637 626.3874"
/>
<path stroke="#eb9b8d" vector-effect="non-scaling-stroke" d="
  M 965.00 625.79
  L 961.12 625.63
  Q 960.50 625.60 960.50 626.22
  L 960.50 634.05
  Q 960.50 634.71 961.16 634.71
  L 965.00 634.71"
/>
<path stroke="#977f87" vector-effect="non-scaling-stroke" d="
  M 967.00 634.46
  L 971.50 634.71"
/>
<path stroke="#977f87" vector-effect="non-scaling-stroke" d="
  M 973.71 634.25
  Q 975.54 635.24 977.49 634.61
  Q 977.98 634.45 977.99 633.94
  L 978.04 631.50"
/>
<path stroke="#93747b" vector-effect="non-scaling-stroke" d="
  M 979.96 631.75
  L 980.28 634.25
  Q 980.35 634.74 980.84 634.71
  L 984.50 634.46"
/>
<path stroke="#8e6a73" vector-effect="non-scaling-stroke" d="
  M 986.50 634.46
  L 987.75 635.04"
/>
<path stroke="#ea9c99" vector-effect="non-scaling-stroke" d="
  M 987.50 667.96
  L 959.50 667.96"
/>
<path stroke="#eb9b8d" vector-effect="non-scaling-stroke" d="
  M 958.5076 625.7740
  A 0.27 0.27 0.0 0 0 958.2381 625.5035
  L 954.2381 625.4965
  A 0.27 0.27 0.0 0 0 953.9676 625.7660
  L 953.9524 634.4660
  A 0.27 0.27 0.0 0 0 954.2219 634.7365
  L 958.2219 634.7435
  A 0.27 0.27 0.0 0 0 958.4924 634.4740
  L 958.5076 625.7740"
/>
<path stroke="#1dceff" vector-effect="non-scaling-stroke" d="
  M 809.00 880.79
  Q 805.20 883.13 801.06 884.81
  Q 779.94 893.39 758.56 901.32
  C 674.91 932.36 588.55 950.97 499.75 959.49
  C 452.20 964.05 403.09 964.82 357.23 958.03
  Q 291.55 948.30 229.24 918.51
  C 164.60 887.59 94.38 843.41 40.21 809.78
  Q 36.66 807.57 29.54 803.56
  Q 29.09 803.31 28.84 802.87
  L 28.43 802.18"
/>
<path stroke="#f4eff0" vector-effect="non-scaling-stroke" d="
  M 988.25 668.04
  L 987.98 672.56
  Q 987.95 673.18 987.33 673.20
  L 981.00 673.46"
/>
<path stroke="#ed7e8c" vector-effect="non-scaling-stroke" d="
  M 981.00 673.46
  L 960.25 673.54"
/>
<path stroke="#d7717c" vector-effect="non-scaling-stroke" d="
  M 1016.75 673.54
  L 987.75 673.54"
/>
<path stroke="#e3717e" vector-effect="non-scaling-stroke" d="
  M 987.75 673.54
  L 981.00 673.46"
/>
<path stroke="#d00018" vector-effect="non-scaling-stroke" d="
  M 987.75 673.54
  C 988.80 682.02 987.94 691.18 987.99 699.75
  C 987.99 700.92 987.43 702.15 987.50 703.46"
/>
<path stroke="#ed7e8c" vector-effect="non-scaling-stroke" d="
  M 987.50 703.46
  L 957.50 703.46"
/>
<path stroke="#d3707c" vector-effect="non-scaling-stroke" d="
  M 1019.21 703.75
  L 987.91 703.55"
/>
<path stroke="#e17e8a" vector-effect="non-scaling-stroke" d="
  M 987.91 703.55
  Q 987.63 703.50 987.50 703.46"
/>
<path stroke="#efedf0" vector-effect="non-scaling-stroke" d="
  M 987.91 703.55
  L 987.87 752.96"
/>
<path stroke="#e17e8a" vector-effect="non-scaling-stroke" d="
  M 987.87 752.96
  L 964.25 753.04"
/>
<path stroke="#ed7e8c" vector-effect="non-scaling-stroke" d="
  M 964.25 753.04
  L 953.25 753.04"
/>
<path stroke="#d3707c" vector-effect="non-scaling-stroke" d="
  M 1023.66 752.79
  L 987.87 752.96"
/>
<path stroke="#d3707c" vector-effect="non-scaling-stroke" d="
  M 1028.11 801.93
  L 988.25 801.79"
/>
<path stroke="#e17e8a" vector-effect="non-scaling-stroke" d="
  M 988.25 801.79
  L 987.75 801.71"
/>
<path stroke="#d00018" vector-effect="non-scaling-stroke" d="
  M 987.75 801.71
  L 988.11 754.80
  A 0.56 0.56 0.0 0 0 987.54 754.24
  L 965.15 754.61
  Q 964.61 754.62 964.49 754.10
  L 964.25 753.04"
/>
<path stroke="#ed7e8c" vector-effect="non-scaling-stroke" d="
  M 987.75 801.71
  L 949.36 801.78
  Q 948.83 801.78 948.85 801.26
  L 948.96 798.50"
/>
<path stroke="#35d2fd" vector-effect="non-scaling-stroke" d="
  M 1554.18 1200.00
  Q 1552.51 1198.82 1546.48 1193.52
  Q 1516.53 1167.23 1479.24 1141.02
  C 1443.86 1116.16 1389.76 1084.73 1344.88 1099.31
  C 1331.52 1103.65 1318.91 1110.94 1306.50 1117.29"
/>
<path stroke="#1dceff" vector-effect="non-scaling-stroke" d="
  M 1306.50 1117.29
  C 1248.41 1050.78 1186.32 985.86 1117.91 929.86
  C 1088.58 905.84 1058.43 884.95 1025.54 868.14
  Q 1024.97 867.85 1025.24 867.28
  Q 1025.91 865.87 1027.75 865.54"
/>
<path stroke="#63648b" vector-effect="non-scaling-stroke" d="
  M 1027.75 865.54
  L 1033.75 864.21"
/>
<path stroke="#9be8ff" vector-effect="non-scaling-stroke" d="
  M 945.18 843.97
  Q 963.79 845.76 981.61 850.82
  C 982.49 851.07 983.34 850.98 984.25 851.04"
/>
<path stroke="#7f6a8b" vector-effect="non-scaling-stroke" d="
  M 984.25 851.04
  Q 983.82 851.08 983.56 851.28
  Q 983.03 851.67 983.69 851.76
  Q 988.52 852.43 990.69 853.28
  Q 1003.57 858.33 1016.50 863.21"
/>
<path stroke="#3fb6d9" vector-effect="non-scaling-stroke" d="
  M 1016.50 863.21
  Q 1017.22 865.29 1019.50 864.71"
/>
<path stroke="#7f6a8b" vector-effect="non-scaling-stroke" d="
  M 1019.50 864.71
  C 1021.45 866.85 1025.24 865.88 1027.75 865.54"
/>
<path stroke="#51d8fd" vector-effect="non-scaling-stroke" d="
  M 1306.50 1117.29
  C 1245.34 1153.00 1180.35 1176.83 1111.18 1188.89
  Q 1079.07 1194.48 1046.49 1193.29
  C 992.58 1191.32 941.47 1166.82 893.70 1144.02
  Q 864.65 1130.16 835.56 1116.37
  Q 821.35 1109.63 808.98 1105.05
  C 726.27 1074.44 661.85 1131.71 624.92 1198.76
  C 624.73 1199.11 624.77 1199.61 624.69 1200.00"
/>
<path stroke="#efedf0" vector-effect="non-scaling-stroke" d="
  M 988.25 801.79
  Q 987.82 825.72 988.00 849.65
  C 988.00 850.37 987.84 850.40 987.50 850.96"
/>
<path stroke="#e17e8a" vector-effect="non-scaling-stroke" d="
  M 987.50 850.96
  L 984.25 851.04"
/>
<path stroke="#d3707c" vector-effect="non-scaling-stroke" d="
  M 1032.54 850.99
  L 987.50 850.96"
/>
<path stroke="#854c64" vector-effect="non-scaling-stroke" d="
  M 1019.50 864.71
  L 1016.50 863.21"
/>
</g>
<path fill="#f2fafc" d="
  M 0.00 0.00
  L 1600.00 0.00
  L 1600.00 886.31
  L 1588.81 886.09
  A 2.17 2.13 -22.6 0 1 1587.41 885.53
  Q 1556.51 857.25 1523.16 832.10
  C 1479.04 798.82 1428.02 768.74 1371.73 763.87
  C 1337.96 760.94 1305.08 773.35 1274.74 785.98
  Q 1233.17 803.30 1199.76 816.28
  Q 1118.92 847.72 1033.75 864.21
  L 1032.54 850.99
  L 1028.11 801.93
  L 1023.66 752.79
  C 1024.20 751.81 1023.71 750.83 1023.62 749.94
  Q 1021.41 727.39 1019.75 704.79
  C 1027.81 704.60 1038.88 698.46 1045.30 693.79
  C 1075.83 671.58 1091.43 638.28 1086.87 600.36
  C 1081.05 551.94 1040.82 516.95 992.93 515.15
  Q 982.89 514.77 973.04 516.63
  C 933.65 524.07 903.51 552.81 894.31 592.10
  Q 893.52 595.49 893.14 599.94
  C 892.58 606.59 891.70 613.47 892.21 619.69
  C 894.42 646.71 907.55 673.99 929.95 690.28
  C 938.97 696.84 945.74 701.25 955.42 704.27
  Q 956.46 710.88 955.81 718.81
  Q 954.40 736.06 953.07 746.94
  C 952.95 747.92 953.53 749.04 952.73 750.03
  Q 952.44 750.38 952.35 750.83
  L 952.00 752.57
  Q 951.91 753.03 952.29 752.77
  Q 952.82 752.40 953.25 753.04
  L 948.96 798.50
  Q 946.92 800.59 947.05 803.42
  Q 947.20 806.65 947.19 806.77
  Q 946.03 825.34 945.18 843.97
  C 920.38 841.53 896.60 847.11 873.81 855.56
  Q 844.69 866.35 811.63 880.56
  Q 811.18 880.76 810.69 880.76
  L 809.00 880.79
  Q 744.43 874.80 684.46 850.24
  C 637.02 830.81 592.33 805.47 548.57 778.93
  C 496.87 747.56 445.62 715.42 393.46 684.81
  Q 365.08 668.16 334.25 658.75
  C 205.73 619.51 98.55 705.22 28.43 802.18
  Q 14.38 794.45 1.02 785.84
  Q 0.58 785.56 0.23 785.94
  L 0.00 786.19
  L 0.00 0.00
  Z"
/>
<path fill="#fff8e6" d="
  M 1019.75 704.79
  L 1019.21 703.75
  L 1016.75 673.54
  L 1017.18 673.21
  Q 1017.56 672.92 1018.01 673.03
  Q 1021.30 673.86 1024.70 673.34
  A 1.66 1.65 -6.1 0 0 1026.10 671.61
  L 1025.96 669.33
  Q 1025.87 667.96 1024.50 667.93
  L 1017.46 667.75
  L 1017.50 637.77
  Q 1017.50 637.25 1018.01 637.25
  L 1025.00 637.25
  Q 1025.75 637.25 1025.75 636.50
  L 1025.75 623.54
  Q 1025.75 623.01 1025.22 623.00
  L 1010.96 622.75
  L 1011.16 598.18
  Q 1011.16 597.64 1010.71 597.93
  C 1009.27 598.86 997.52 598.26 995.00 598.29
  L 988.00 598.29
  L 982.75 598.29
  L 966.48 598.26
  Q 966.17 598.26 966.07 597.96
  L 965.93 597.53
  Q 965.91 597.47 965.86 597.52
  Q 965.75 597.62 965.65 597.73
  Q 965.49 597.89 965.50 598.13
  C 965.67 602.66 965.22 621.84 966.29 623.00
  L 965.50 623.29
  L 952.11 623.34
  Q 951.50 623.35 951.50 623.96
  L 951.50 636.75
  Q 951.50 637.25 952.00 637.25
  L 958.96 637.25
  Q 959.48 637.25 959.48 637.78
  L 959.50 667.96
  Q 955.19 667.58 950.93 668.43
  Q 950.43 668.53 950.34 669.03
  C 949.37 674.64 956.96 673.77 960.25 673.54
  L 957.50 703.46
  L 955.42 704.27
  C 945.74 701.25 938.97 696.84 929.95 690.28
  C 907.55 673.99 894.42 646.71 892.21 619.69
  C 891.70 613.47 892.58 606.59 893.14 599.94
  Q 893.52 595.49 894.31 592.10
  C 903.51 552.81 933.65 524.07 973.04 516.63
  Q 982.89 514.77 992.93 515.15
  C 1040.82 516.95 1081.05 551.94 1086.87 600.36
  C 1091.43 638.28 1075.83 671.58 1045.30 693.79
  C 1038.88 698.46 1027.81 704.60 1019.75 704.79
  Z
  M 985.79 570.75
  Q 985.98 571.56 985.25 571.72
  Q 967.33 575.61 965.47 593.96
  A 0.48 0.48 0.0 0 0 965.95 594.49
  L 988.35 594.49
  L 1010.90 594.49
  Q 1011.47 594.49 1011.41 593.93
  Q 1009.55 575.60 991.71 571.73
  Q 991.25 571.63 991.25 571.16
  C 991.25 568.81 991.82 562.02 990.78 560.22
  C 989.61 558.18 986.02 559.03 985.81 561.31
  Q 985.61 563.36 985.79 570.75
  Z
  M 1051.60 597.86
  Q 1051.35 598.58 1051.76 599.16
  Q 1052.21 599.79 1052.75 599.24
  Q 1054.49 597.47 1056.78 599.02
  Q 1056.99 599.17 1057.22 599.03
  L 1057.56 598.83
  Q 1058.45 598.30 1057.49 597.93
  L 1049.19 594.73
  Q 1048.87 594.60 1048.69 594.89
  Q 1048.59 595.05 1048.41 595.20
  Q 1048.04 595.51 1048.48 595.71
  L 1051.22 596.95
  Q 1051.82 597.23 1051.60 597.86
  Z
  M 1045.47 601.74
  L 1049.20 601.41
  Q 1049.71 601.36 1049.76 600.86
  C 1049.86 599.89 1045.43 599.89 1044.60 599.78
  Q 1044.14 599.72 1043.88 600.11
  C 1043.55 600.60 1039.49 599.73 1037.59 601.15
  A 0.24 0.24 0.0 0 0 1037.72 601.58
  L 1042.58 601.93
  Q 1043.28 601.98 1043.07 602.65
  L 1042.81 603.45
  Q 1042.65 603.96 1043.19 603.98
  L 1044.43 604.01
  Q 1045.15 604.03 1045.02 603.32
  L 1044.87 602.53
  Q 1044.73 601.80 1045.47 601.74
  Z"
/>
<path fill="#be362c" d="
  M 988.35 594.49
  L 988.05 572.56
  Q 988.04 572.02 987.58 571.76
  L 985.79 570.75
  Q 985.61 563.36 985.81 561.31
  C 986.02 559.03 989.61 558.18 990.78 560.22
  C 991.82 562.02 991.25 568.81 991.25 571.16
  Q 991.25 571.63 991.71 571.73
  Q 1009.55 575.60 1011.41 593.93
  Q 1011.47 594.49 1010.90 594.49
  L 988.35 594.49
  Z"
/>
<path fill="#d73d33" d="
  M 985.79 570.75
  L 987.58 571.76
  Q 988.04 572.02 988.05 572.56
  L 988.35 594.49
  L 965.95 594.49
  A 0.48 0.48 0.0 0 1 965.47 593.96
  Q 967.33 575.61 985.25 571.72
  Q 985.98 571.56 985.79 570.75
  Z"
/>
<path fill="#000000" d="
  M 1051.22 596.95
  L 1048.48 595.71
  Q 1048.04 595.51 1048.41 595.20
  Q 1048.59 595.05 1048.69 594.89
  Q 1048.87 594.60 1049.19 594.73
  L 1057.49 597.93
  Q 1058.45 598.30 1057.56 598.83
  L 1057.22 599.03
  Q 1056.99 599.17 1056.78 599.02
  Q 1054.49 597.47 1052.75 599.24
  Q 1052.21 599.79 1051.76 599.16
  Q 1051.35 598.58 1051.60 597.86
  Q 1051.82 597.23 1051.22 596.95
  Z"
/>
<path fill="#57c1da" d="
  M 982.75 598.29
  Q 981.46 603.58 982.42 608.99
  Q 982.46 609.23 982.70 609.26
  Q 982.85 609.28 983.00 609.29
  L 982.75 609.54
  Q 975.87 613.90 979.69 621.56
  Q 980.09 622.37 979.00 622.96
  L 966.29 623.00
  C 965.22 621.84 965.67 602.66 965.50 598.13
  Q 965.49 597.89 965.65 597.73
  Q 965.75 597.62 965.86 597.52
  Q 965.91 597.47 965.93 597.53
  L 966.07 597.96
  Q 966.17 598.26 966.48 598.26
  L 982.75 598.29
  Z"
/>
<path fill="#4fabc2" d="
  M 1010.96 622.75
  L 994.00 622.96
  Q 997.58 617.15 994.49 611.60
  Q 995.35 604.95 995.00 598.29
  C 997.52 598.26 1009.27 598.86 1010.71 597.93
  Q 1011.16 597.64 1011.16 598.18
  L 1010.96 622.75
  Z"
/>
<path fill="#4fabc2" d="
  M 982.75 598.29
  L 988.00 598.29
  L 987.50 607.96
  Q 985.10 608.14 983.00 609.29
  Q 982.85 609.28 982.70 609.26
  Q 982.46 609.23 982.42 608.99
  Q 981.46 603.58 982.75 598.29
  Z"
/>
<path fill="#299eb8" d="
  M 988.00 598.29
  L 995.00 598.29
  Q 995.35 604.95 994.49 611.60
  Q 991.62 608.49 988.00 608.29
  L 987.50 607.96
  L 988.00 598.29
  Z"
/>
<path fill="#000000" d="
  M 1044.87 602.53
  L 1045.02 603.32
  Q 1045.15 604.03 1044.43 604.01
  L 1043.19 603.98
  Q 1042.65 603.96 1042.81 603.45
  L 1043.07 602.65
  Q 1043.28 601.98 1042.58 601.93
  L 1037.72 601.58
  A 0.24 0.24 0.0 0 1 1037.59 601.15
  C 1039.49 599.73 1043.55 600.60 1043.88 600.11
  Q 1044.14 599.72 1044.60 599.78
  C 1045.43 599.89 1049.86 599.89 1049.76 600.86
  Q 1049.71 601.36 1049.20 601.41
  L 1045.47 601.74
  Q 1044.73 601.80 1044.87 602.53
  Z"
/>
<path fill="#fee73d" d="
  M 987.50 607.96
  L 988.00 608.29
  L 988.25 622.96
  Q 984.87 623.62 981.50 622.96
  Q 981.17 616.15 982.75 609.54
  L 983.00 609.29
  Q 985.10 608.14 987.50 607.96
  Z"
/>
<path fill="#e0ce39" d="
  M 988.00 608.29
  Q 991.62 608.49 994.49 611.60
  Q 997.58 617.15 994.00 622.96
  L 988.25 622.96
  L 988.00 608.29
  Z"
/>
<path fill="#f6ee70" d="
  M 982.75 609.54
  Q 981.17 616.15 981.50 622.96
  L 979.00 622.96
  Q 980.09 622.37 979.69 621.56
  Q 975.87 613.90 982.75 609.54
  Z"
/>
<path fill="#be362c" d="
  M 1010.96 622.75
  L 1025.22 623.00
  Q 1025.75 623.01 1025.75 623.54
  L 1025.75 636.50
  Q 1025.75 637.25 1025.00 637.25
  L 1018.01 637.25
  Q 1017.50 637.25 1017.50 637.77
  L 1017.46 667.75
  L 988.25 668.04
  L 987.50 667.96
  Q 988.39 663.45 988.25 658.89
  C 988.00 650.93 988.08 643.00 987.75 635.04
  L 990.60 634.73
  Q 991.25 634.66 991.25 634.00
  L 991.25 626.43
  Q 991.25 625.87 990.69 625.84
  L 987.28 625.71
  Q 986.62 625.68 986.61 626.34
  L 986.50 634.46
  L 984.50 634.46
  L 984.46 626.46
  Q 984.46 625.89 983.90 625.84
  L 980.93 625.53
  Q 980.32 625.47 980.29 626.08
  L 979.96 631.75
  Q 978.72 632.59 978.04 631.50
  L 978.00 626.13
  Q 977.99 625.52 977.38 625.51
  L 974.34 625.49
  Q 973.75 625.49 973.75 626.08
  L 973.71 634.25
  Q 972.43 633.50 971.50 634.71
  L 971.70 626.14
  Q 971.71 625.60 971.17 625.61
  L 967.81 625.66
  Q 967.20 625.67 967.19 626.28
  L 967.00 634.46
  L 965.00 634.71
  L 965.00 625.79
  Q 965.88 624.62 965.50 623.29
  L 966.29 623.00
  L 979.00 622.96
  L 981.50 622.96
  Q 984.87 623.62 988.25 622.96
  L 994.00 622.96
  L 1010.96 622.75
  Z
  M 1004.1530 626.2830
  A 0.80 0.80 0.0 0 0 1003.3433 625.4929
  L 1000.4835 625.5278
  A 0.80 0.80 0.0 0 0 999.6934 626.3375
  L 999.7870 633.9970
  A 0.80 0.80 0.0 0 0 1000.5967 634.7871
  L 1003.4565 634.7522
  A 0.80 0.80 0.0 0 0 1004.2466 633.9425
  L 1004.1530 626.2830
  Z
  M 1010.7631 626.4179
  A 0.85 0.85 0.0 0 0 1009.9160 625.5649
  L 1007.1161 625.5551
  A 0.85 0.85 0.0 0 0 1006.2631 626.4022
  L 1006.2369 633.9021
  A 0.85 0.85 0.0 0 0 1007.0840 634.7551
  L 1009.8839 634.7649
  A 0.85 0.85 0.0 0 0 1010.7369 633.9178
  L 1010.7631 626.4179
  Z
  M 1017.25 626.02
  A 0.48 0.48 0.0 0 0 1016.77 625.54
  L 1013.23 625.54
  A 0.48 0.48 0.0 0 0 1012.75 626.02
  L 1012.75 634.28
  A 0.48 0.48 0.0 0 0 1013.23 634.76
  L 1016.77 634.76
  A 0.48 0.48 0.0 0 0 1017.25 634.28
  L 1017.25 626.02
  Z
  M 1023.2213 626.0268
  A 0.51 0.51 0.0 0 0 1022.7078 625.5204
  L 1019.9279 625.5398
  A 0.51 0.51 0.0 0 0 1019.4214 626.0534
  L 1019.4787 634.2532
  A 0.51 0.51 0.0 0 0 1019.9922 634.7596
  L 1022.7721 634.7402
  A 0.51 0.51 0.0 0 0 1023.2786 634.2266
  L 1023.2213 626.0268
  Z
  M 997.7637 626.3874
  A 0.64 0.64 0.0 0 0 997.1259 625.7452
  L 994.1660 625.7349
  A 0.64 0.64 0.0 0 0 993.5237 626.3726
  L 993.4963 634.2326
  A 0.64 0.64 0.0 0 0 994.1341 634.8748
  L 997.0940 634.8851
  A 0.64 0.64 0.0 0 0 997.7363 634.2474
  L 997.7637 626.3874
  Z"
/>
<path fill="#d73d33" d="
  M 965.50 623.29
  Q 965.88 624.62 965.00 625.79
  L 961.12 625.63
  Q 960.50 625.60 960.50 626.22
  L 960.50 634.05
  Q 960.50 634.71 961.16 634.71
  L 965.00 634.71
  L 967.00 634.46
  L 971.50 634.71
  Q 972.43 633.50 973.71 634.25
  Q 975.54 635.24 977.49 634.61
  Q 977.98 634.45 977.99 633.94
  L 978.04 631.50
  Q 978.72 632.59 979.96 631.75
  L 980.28 634.25
  Q 980.35 634.74 980.84 634.71
  L 984.50 634.46
  L 986.50 634.46
  L 987.75 635.04
  C 988.08 643.00 988.00 650.93 988.25 658.89
  Q 988.39 663.45 987.50 667.96
  L 959.50 667.96
  L 959.48 637.78
  Q 959.48 637.25 958.96 637.25
  L 952.00 637.25
  Q 951.50 637.25 951.50 636.75
  L 951.50 623.96
  Q 951.50 623.35 952.11 623.34
  L 965.50 623.29
  Z
  M 958.5076 625.7740
  A 0.27 0.27 0.0 0 0 958.2381 625.5035
  L 954.2381 625.4965
  A 0.27 0.27 0.0 0 0 953.9676 625.7660
  L 953.9524 634.4660
  A 0.27 0.27 0.0 0 0 954.2219 634.7365
  L 958.2219 634.7435
  A 0.27 0.27 0.0 0 0 958.4924 634.4740
  L 958.5076 625.7740
  Z"
/>
<rect fill="#fff8e6" x="-2.27" y="-4.62" transform="translate(956.23,630.12) rotate(0.1)" width="4.54" height="9.24" rx="0.27"/>
<path fill="#fff8e6" d="
  M 965.00 625.79
  L 965.00 634.71
  L 961.16 634.71
  Q 960.50 634.71 960.50 634.05
  L 960.50 626.22
  Q 960.50 625.60 961.12 625.63
  L 965.00 625.79
  Z"
/>
<path fill="#57c1da" d="
  M 971.50 634.71
  L 967.00 634.46
  L 967.19 626.28
  Q 967.20 625.67 967.81 625.66
  L 971.17 625.61
  Q 971.71 625.60 971.70 626.14
  L 971.50 634.71
  Z"
/>
<path fill="#57c1da" d="
  M 978.04 631.50
  L 977.99 633.94
  Q 977.98 634.45 977.49 634.61
  Q 975.54 635.24 973.71 634.25
  L 973.75 626.08
  Q 973.75 625.49 974.34 625.49
  L 977.38 625.51
  Q 977.99 625.52 978.00 626.13
  L 978.04 631.50
  Z"
/>
<path fill="#4fabc2" d="
  M 984.50 634.46
  L 980.84 634.71
  Q 980.35 634.74 980.28 634.25
  L 979.96 631.75
  L 980.29 626.08
  Q 980.32 625.47 980.93 625.53
  L 983.90 625.84
  Q 984.46 625.89 984.46 626.46
  L 984.50 634.46
  Z"
/>
<rect fill="#4fabc2" x="-2.23" y="-4.63" transform="translate(1001.97,630.14) rotate(-0.7)" width="4.46" height="9.26" rx="0.80"/>
<rect fill="#4fabc2" x="-2.25" y="-4.60" transform="translate(1008.50,630.16) rotate(0.2)" width="4.50" height="9.20" rx="0.85"/>
<rect fill="#fff8e6" x="1012.75" y="625.54" width="4.50" height="9.22" rx="0.48"/>
<rect fill="#fff8e6" x="-1.90" y="-4.61" transform="translate(1021.35,630.14) rotate(-0.4)" width="3.80" height="9.22" rx="0.51"/>
<path fill="#4597b2" d="
  M 987.75 635.04
  L 986.50 634.46
  L 986.61 626.34
  Q 986.62 625.68 987.28 625.71
  L 990.69 625.84
  Q 991.25 625.87 991.25 626.43
  L 991.25 634.00
  Q 991.25 634.66 990.60 634.73
  L 987.75 635.04
  Z"
/>
<rect fill="#4fabc2" x="-2.12" y="-4.57" transform="translate(995.63,630.31) rotate(0.2)" width="4.24" height="9.14" rx="0.64"/>
<path fill="#01c8ff" d="
  M 809.00 880.79
  Q 805.20 883.13 801.06 884.81
  Q 779.94 893.39 758.56 901.32
  C 674.91 932.36 588.55 950.97 499.75 959.49
  C 452.20 964.05 403.09 964.82 357.23 958.03
  Q 291.55 948.30 229.24 918.51
  C 164.60 887.59 94.38 843.41 40.21 809.78
  Q 36.66 807.57 29.54 803.56
  Q 29.09 803.31 28.84 802.87
  L 28.43 802.18
  C 98.55 705.22 205.73 619.51 334.25 658.75
  Q 365.08 668.16 393.46 684.81
  C 445.62 715.42 496.87 747.56 548.57 778.93
  C 592.33 805.47 637.02 830.81 684.46 850.24
  Q 744.43 874.80 809.00 880.79
  Z"
/>
<path fill="#fdfbfe" d="
  M 959.50 667.96
  L 987.50 667.96
  L 988.25 668.04
  L 987.98 672.56
  Q 987.95 673.18 987.33 673.20
  L 981.00 673.46
  L 960.25 673.54
  C 956.96 673.77 949.37 674.64 950.34 669.03
  Q 950.43 668.53 950.93 668.43
  Q 955.19 667.58 959.50 667.96
  Z"
/>
<path fill="#eae2e1" d="
  M 1017.46 667.75
  L 1024.50 667.93
  Q 1025.87 667.96 1025.96 669.33
  L 1026.10 671.61
  A 1.66 1.65 -6.1 0 1 1024.70 673.34
  Q 1021.30 673.86 1018.01 673.03
  Q 1017.56 672.92 1017.18 673.21
  L 1016.75 673.54
  L 987.75 673.54
  L 981.00 673.46
  L 987.33 673.20
  Q 987.95 673.18 987.98 672.56
  L 988.25 668.04
  L 1017.46 667.75
  Z"
/>
<path fill="#dc001a" d="
  M 960.25 673.54
  L 981.00 673.46
  L 987.75 673.54
  C 988.80 682.02 987.94 691.18 987.99 699.75
  C 987.99 700.92 987.43 702.15 987.50 703.46
  L 957.50 703.46
  L 960.25 673.54
  Z"
/>
<path fill="#c40016" d="
  M 987.75 673.54
  L 1016.75 673.54
  L 1019.21 703.75
  L 987.91 703.55
  Q 987.63 703.50 987.50 703.46
  C 987.43 702.15 987.99 700.92 987.99 699.75
  C 987.94 691.18 988.80 682.02 987.75 673.54
  Z"
/>
<path fill="#fdfbfe" d="
  M 957.50 703.46
  L 987.50 703.46
  Q 987.63 703.50 987.91 703.55
  L 987.87 752.96
  L 964.25 753.04
  L 953.25 753.04
  Q 952.82 752.40 952.29 752.77
  Q 951.91 753.03 952.00 752.57
  L 952.35 750.83
  Q 952.44 750.38 952.73 750.03
  C 953.53 749.04 952.95 747.92 953.07 746.94
  Q 954.40 736.06 955.81 718.81
  Q 956.46 710.88 955.42 704.27
  L 957.50 703.46
  Z"
/>
<path fill="#e1dfe2" d="
  M 987.91 703.55
  L 1019.21 703.75
  L 1019.75 704.79
  Q 1021.41 727.39 1023.62 749.94
  C 1023.71 750.83 1024.20 751.81 1023.66 752.79
  L 987.87 752.96
  L 987.91 703.55
  Z"
/>
<path fill="#c40016" d="
  M 1023.66 752.79
  L 1028.11 801.93
  L 988.25 801.79
  L 987.75 801.71
  L 988.11 754.80
  A 0.56 0.56 0.0 0 0 987.54 754.24
  L 965.15 754.61
  Q 964.61 754.62 964.49 754.10
  L 964.25 753.04
  L 987.87 752.96
  L 1023.66 752.79
  Z"
/>
<path fill="#dc001a" d="
  M 953.25 753.04
  L 964.25 753.04
  L 964.49 754.10
  Q 964.61 754.62 965.15 754.61
  L 987.54 754.24
  A 0.56 0.56 0.0 0 1 988.11 754.80
  L 987.75 801.71
  L 949.36 801.78
  Q 948.83 801.78 948.85 801.26
  L 948.96 798.50
  L 953.25 753.04
  Z"
/>
<path fill="#01c8ff" d="
  M 1600.00 886.31
  L 1600.00 1200.00
  L 1554.18 1200.00
  Q 1552.51 1198.82 1546.48 1193.52
  Q 1516.53 1167.23 1479.24 1141.02
  C 1443.86 1116.16 1389.76 1084.73 1344.88 1099.31
  C 1331.52 1103.65 1318.91 1110.94 1306.50 1117.29
  C 1248.41 1050.78 1186.32 985.86 1117.91 929.86
  C 1088.58 905.84 1058.43 884.95 1025.54 868.14
  Q 1024.97 867.85 1025.24 867.28
  Q 1025.91 865.87 1027.75 865.54
  L 1033.75 864.21
  Q 1118.92 847.72 1199.76 816.28
  Q 1233.17 803.30 1274.74 785.98
  C 1305.08 773.35 1337.96 760.94 1371.73 763.87
  C 1428.02 768.74 1479.04 798.82 1523.16 832.10
  Q 1556.51 857.25 1587.41 885.53
  A 2.17 2.13 -22.6 0 0 1588.81 886.09
  L 1600.00 886.31
  Z"
/>
<path fill="#39d4ff" d="
  M 28.43 802.18
  L 28.84 802.87
  Q 29.09 803.31 29.54 803.56
  Q 36.66 807.57 40.21 809.78
  C 94.38 843.41 164.60 887.59 229.24 918.51
  Q 291.55 948.30 357.23 958.03
  C 403.09 964.82 452.20 964.05 499.75 959.49
  C 588.55 950.97 674.91 932.36 758.56 901.32
  Q 779.94 893.39 801.06 884.81
  Q 805.20 883.13 809.00 880.79
  L 810.69 880.76
  Q 811.18 880.76 811.63 880.56
  Q 844.69 866.35 873.81 855.56
  C 896.60 847.11 920.38 841.53 945.18 843.97
  Q 963.79 845.76 981.61 850.82
  C 982.49 851.07 983.34 850.98 984.25 851.04
  Q 983.82 851.08 983.56 851.28
  Q 983.03 851.67 983.69 851.76
  Q 988.52 852.43 990.69 853.28
  Q 1003.57 858.33 1016.50 863.21
  Q 1017.22 865.29 1019.50 864.71
  C 1021.45 866.85 1025.24 865.88 1027.75 865.54
  Q 1025.91 865.87 1025.24 867.28
  Q 1024.97 867.85 1025.54 868.14
  C 1058.43 884.95 1088.58 905.84 1117.91 929.86
  C 1186.32 985.86 1248.41 1050.78 1306.50 1117.29
  C 1245.34 1153.00 1180.35 1176.83 1111.18 1188.89
  Q 1079.07 1194.48 1046.49 1193.29
  C 992.58 1191.32 941.47 1166.82 893.70 1144.02
  Q 864.65 1130.16 835.56 1116.37
  Q 821.35 1109.63 808.98 1105.05
  C 726.27 1074.44 661.85 1131.71 624.92 1198.76
  C 624.73 1199.11 624.77 1199.61 624.69 1200.00
  L 0.00 1200.00
  L 0.00 786.19
  L 0.23 785.94
  Q 0.58 785.56 1.02 785.84
  Q 14.38 794.45 28.43 802.18
  Z"
/>
<path fill="#fdfbfe" d="
  M 948.96 798.50
  L 948.85 801.26
  Q 948.83 801.78 949.36 801.78
  L 987.75 801.71
  L 988.25 801.79
  Q 987.82 825.72 988.00 849.65
  C 988.00 850.37 987.84 850.40 987.50 850.96
  L 984.25 851.04
  C 983.34 850.98 982.49 851.07 981.61 850.82
  Q 963.79 845.76 945.18 843.97
  Q 946.03 825.34 947.19 806.77
  Q 947.20 806.65 947.05 803.42
  Q 946.92 800.59 948.96 798.50
  Z"
/>
<path fill="#e1dfe2" d="
  M 988.25 801.79
  L 1028.11 801.93
  L 1032.54 850.99
  L 987.50 850.96
  C 987.84 850.40 988.00 850.37 988.00 849.65
  Q 987.82 825.72 988.25 801.79
  Z"
/>
<path fill="#c40016" d="
  M 984.25 851.04
  L 987.50 850.96
  L 1032.54 850.99
  L 1033.75 864.21
  L 1027.75 865.54
  C 1025.24 865.88 1021.45 866.85 1019.50 864.71
  L 1016.50 863.21
  Q 1003.57 858.33 990.69 853.28
  Q 988.52 852.43 983.69 851.76
  Q 983.03 851.67 983.56 851.28
  Q 983.82 851.08 984.25 851.04
  Z"
/>
<path fill="#4597b2" d="
  M 1016.50 863.21
  L 1019.50 864.71
  Q 1017.22 865.29 1016.50 863.21
  Z"
/>
<path fill="#69dcfb" d="
  M 1554.18 1200.00
  L 624.69 1200.00
  C 624.77 1199.61 624.73 1199.11 624.92 1198.76
  C 661.85 1131.71 726.27 1074.44 808.98 1105.05
  Q 821.35 1109.63 835.56 1116.37
  Q 864.65 1130.16 893.70 1144.02
  C 941.47 1166.82 992.58 1191.32 1046.49 1193.29
  Q 1079.07 1194.48 1111.18 1188.89
  C 1180.35 1176.83 1245.34 1153.00 1306.50 1117.29
  C 1318.91 1110.94 1331.52 1103.65 1344.88 1099.31
  C 1389.76 1084.73 1443.86 1116.16 1479.24 1141.02
  Q 1516.53 1167.23 1546.48 1193.52
  Q 1552.51 1198.82 1554.18 1200.00
  Z"
/>
</svg>
