<?xml version="1.0" encoding="utf-8"?>
<svg viewBox="-533.3941 -417.334 1600.0001 1200" xmlns="http://www.w3.org/2000/svg">
  <g stroke-width="2.00" fill="none" stroke-linecap="butt" transform="matrix(1, 0, 0, 1, -533.3941199002893, -417.33399681252206)">
    <path stroke="#7ae1fe" vector-effect="non-scaling-stroke" d=" M 1600.00 886.31 L 1588.81 886.09 A 2.17 2.13 -22.6 0 1 1587.41 885.53 Q 1556.51 857.25 1523.16 832.10 C 1479.04 798.82 1428.02 768.74 1371.73 763.87 C 1337.96 760.94 1305.08 773.35 1274.74 785.98 Q 1233.17 803.30 1199.76 816.28 Q 1118.92 847.72 1033.75 864.21" data-darkreader-inline-stroke="" style="--darkreader-inline-stroke: #6fdffe;"/>
    <path stroke="#db7d89" vector-effect="non-scaling-stroke" d=" M 1033.75 864.21 L 1032.54 850.99" data-darkreader-inline-stroke="" style="--darkreader-inline-stroke: #db7c88;"/>
    <path stroke="#eaedef" vector-effect="non-scaling-stroke" d=" M 1032.54 850.99 L 1028.11 801.93" data-darkreader-inline-stroke="" style="--darkreader-inline-stroke: #dcd9d5;"/>
    <path stroke="#db7d89" vector-effect="non-scaling-stroke" d=" M 1028.11 801.93 L 1023.66 752.79" data-darkreader-inline-stroke="" style="--darkreader-inline-stroke: #db7c88;"/>
    <path stroke="#eaedef" vector-effect="non-scaling-stroke" d=" M 1023.66 752.79 C 1024.20 751.81 1023.71 750.83 1023.62 749.94 Q 1021.41 727.39 1019.75 704.79" data-darkreader-inline-stroke="" style="--darkreader-inline-stroke: #dcd9d5;"/>
    <path stroke="#f9f9f1" vector-effect="non-scaling-stroke" d=" M 1019.75 704.79 C 1027.81 704.60 1038.88 698.46 1045.30 693.79 C 1075.83 671.58 1091.43 638.28 1086.87 600.36 C 1081.05 551.94 1040.82 516.95 992.93 515.15 Q 982.89 514.77 973.04 516.63 C 933.65 524.07 903.51 552.81 894.31 592.10 Q 893.52 595.49 893.14 599.94 C 892.58 606.59 891.70 613.47 892.21 619.69 C 894.42 646.71 907.55 673.99 929.95 690.28 C 938.97 696.84 945.74 701.25 955.42 704.27" data-darkreader-inline-stroke="" style="--darkreader-inline-stroke: #ebebd1;"/>
    <path stroke="#f8fbfd" vector-effect="non-scaling-stroke" d=" M 955.42 704.27 Q 956.46 710.88 955.81 718.81 Q 954.40 736.06 953.07 746.94 C 952.95 747.92 953.53 749.04 952.73 750.03 Q 952.44 750.38 952.35 750.83 L 952.00 752.57 Q 951.91 753.03 952.29 752.77 Q 952.82 752.40 953.25 753.04" data-darkreader-inline-stroke="" style="--darkreader-inline-stroke: #d2e6f2;"/>
    <path stroke="#e77d8b" vector-effect="non-scaling-stroke" d=" M 953.25 753.04 L 948.96 798.50" data-darkreader-inline-stroke="" style="--darkreader-inline-stroke: #e67987;"/>
    <path stroke="#f8fbfd" vector-effect="non-scaling-stroke" d=" M 948.96 798.50 Q 946.92 800.59 947.05 803.42 Q 947.20 806.65 947.19 806.77 Q 946.03 825.34 945.18 843.97" data-darkreader-inline-stroke="" style="--darkreader-inline-stroke: #d2e6f2;"/>
    <path stroke="#96e7fe" vector-effect="non-scaling-stroke" d=" M 945.18 843.97 C 920.38 841.53 896.60 847.11 873.81 855.56 Q 844.69 866.35 811.63 880.56 Q 811.18 880.76 810.69 880.76 L 809.00 880.79" data-darkreader-inline-stroke="" style="--darkreader-inline-stroke: #83e3fe;"/>
    <path stroke="#7ae1fe" vector-effect="non-scaling-stroke" d=" M 809.00 880.79 Q 744.43 874.80 684.46 850.24 C 637.02 830.81 592.33 805.47 548.57 778.93 C 496.87 747.56 445.62 715.42 393.46 684.81 Q 365.08 668.16 334.25 658.75 C 205.73 619.51 98.55 705.22 28.43 802.18" data-darkreader-inline-stroke="" style="--darkreader-inline-stroke: #6fdffe;"/>
    <path stroke="#96e7fe" vector-effect="non-scaling-stroke" d=" M 28.43 802.18 Q 14.38 794.45 1.02 785.84 Q 0.58 785.56 0.23 785.94 L 0.00 786.19" data-darkreader-inline-stroke="" style="--darkreader-inline-stroke: #83e3fe;"/>
    <path stroke="#f0ece4" vector-effect="non-scaling-stroke" d=" M 1019.75 704.79 L 1019.21 703.75" data-darkreader-inline-stroke="" style="--darkreader-inline-stroke: #e2dbcb;"/>
    <path stroke="#e27c7e" vector-effect="non-scaling-stroke" d=" M 1019.21 703.75 L 1016.75 673.54" data-darkreader-inline-stroke="" style="--darkreader-inline-stroke: #e17a7c;"/>
    <path stroke="#f5ede4" vector-effect="non-scaling-stroke" d=" M 1016.75 673.54 L 1017.18 673.21 Q 1017.56 672.92 1018.01 673.03 Q 1021.30 673.86 1024.70 673.34 A 1.66 1.65 -6.1 0 0 1026.10 671.61 L 1025.96 669.33 Q 1025.87 667.96 1024.50 667.93 L 1017.46 667.75" data-darkreader-inline-stroke="" style="--darkreader-inline-stroke: #eadac7;"/>
    <path stroke="#df9789" vector-effect="non-scaling-stroke" d=" M 1017.46 667.75 L 1017.50 637.77 Q 1017.50 637.25 1018.01 637.25 L 1025.00 637.25 Q 1025.75 637.25 1025.75 636.50 L 1025.75 623.54 Q 1025.75 623.01 1025.22 623.00 L 1010.96 622.75" data-darkreader-inline-stroke="" style="--darkreader-inline-stroke: #de9384;"/>
    <path stroke="#a7d2d4" vector-effect="non-scaling-stroke" d=" M 1010.96 622.75 L 1011.16 598.18 Q 1011.16 597.64 1010.71 597.93 C 1009.27 598.86 997.52 598.26 995.00 598.29" data-darkreader-inline-stroke="" style="--darkreader-inline-stroke: #9fced0;"/>
    <path stroke="#94cbcf" vector-effect="non-scaling-stroke" d=" M 995.00 598.29 L 988.00 598.29" data-darkreader-inline-stroke="" style="--darkreader-inline-stroke: #91c9ce;"/>
    <path stroke="#a7d2d4" vector-effect="non-scaling-stroke" d=" M 988.00 598.29 L 982.75 598.29" data-darkreader-inline-stroke="" style="--darkreader-inline-stroke: #9fced0;"/>
    <path stroke="#abdde0" vector-effect="non-scaling-stroke" d=" M 982.75 598.29 L 966.48 598.26 Q 966.17 598.26 966.07 597.96 L 965.93 597.53 Q 965.91 597.47 965.86 597.52 Q 965.75 597.62 965.65 597.73 Q 965.49 597.89 965.50 598.13 C 965.67 602.66 965.22 621.84 966.29 623.00" data-darkreader-inline-stroke="" style="--darkreader-inline-stroke: #9fd8dc;"/>
    <path stroke="#df9789" vector-effect="non-scaling-stroke" d=" M 966.29 623.00 L 965.50 623.29" data-darkreader-inline-stroke="" style="--darkreader-inline-stroke: #de9384;"/>
    <path stroke="#eb9b8d" vector-effect="non-scaling-stroke" d=" M 965.50 623.29 L 952.11 623.34 Q 951.50 623.35 951.50 623.96 L 951.50 636.75 Q 951.50 637.25 952.00 637.25 L 958.96 637.25 Q 959.48 637.25 959.48 637.78 L 959.50 667.96" data-darkreader-inline-stroke="" style="--darkreader-inline-stroke: #e99384;"/>
    <path stroke="#fefaf2" vector-effect="non-scaling-stroke" d=" M 959.50 667.96 Q 955.19 667.58 950.93 668.43 Q 950.43 668.53 950.34 669.03 C 949.37 674.64 956.96 673.77 960.25 673.54" data-darkreader-inline-stroke="" style="--darkreader-inline-stroke: #fbe9c7;"/>
    <path stroke="#ee7c80" vector-effect="non-scaling-stroke" d=" M 960.25 673.54 L 957.50 703.46" data-darkreader-inline-stroke="" style="--darkreader-inline-stroke: #ed767a;"/>
    <path stroke="#fefaf2" vector-effect="non-scaling-stroke" d=" M 957.50 703.46 L 955.42 704.27" data-darkreader-inline-stroke="" style="--darkreader-inline-stroke: #fbe9c7;"/>
    <path stroke="#eb9b8d" vector-effect="non-scaling-stroke" d=" M 985.79 570.75 Q 985.98 571.56 985.25 571.72 Q 967.33 575.61 965.47 593.96 A 0.48 0.48 0.0 0 0 965.95 594.49 L 988.35 594.49" data-darkreader-inline-stroke="" style="--darkreader-inline-stroke: #e99384;"/>
    <path stroke="#df9789" vector-effect="non-scaling-stroke" d=" M 988.35 594.49 L 1010.90 594.49 Q 1011.47 594.49 1011.41 593.93 Q 1009.55 575.60 991.71 571.73 Q 991.25 571.63 991.25 571.16 C 991.25 568.81 991.82 562.02 990.78 560.22 C 989.61 558.18 986.02 559.03 985.81 561.31 Q 985.61 563.36 985.79 570.75" data-darkreader-inline-stroke="" style="--darkreader-inline-stroke: #de9384;"/>
    <path stroke="#cb3a30" vector-effect="non-scaling-stroke" d=" M 988.35 594.49 L 988.05 572.56 Q 988.04 572.02 987.58 571.76 L 985.79 570.75" data-darkreader-inline-stroke="" style="--darkreader-inline-stroke: #d45148;"/>
    <path stroke="#807c73" vector-effect="non-scaling-stroke" d=" M 1051.60 597.86 Q 1051.35 598.58 1051.76 599.16 Q 1052.21 599.79 1052.75 599.24 Q 1054.49 597.47 1056.78 599.02 Q 1056.99 599.17 1057.22 599.03 L 1057.56 598.83 Q 1058.45 598.30 1057.49 597.93 L 1049.19 594.73 Q 1048.87 594.60 1048.69 594.89 Q 1048.59 595.05 1048.41 595.20 Q 1048.04 595.51 1048.48 595.71 L 1051.22 596.95 Q 1051.82 597.23 1051.60 597.86" data-darkreader-inline-stroke="" style="--darkreader-inline-stroke: #9b9386;"/>
    <path stroke="#807c73" vector-effect="non-scaling-stroke" d=" M 1045.47 601.74 L 1049.20 601.41 Q 1049.71 601.36 1049.76 600.86 C 1049.86 599.89 1045.43 599.89 1044.60 599.78 Q 1044.14 599.72 1043.88 600.11 C 1043.55 600.60 1039.49 599.73 1037.59 601.15 A 0.24 0.24 0.0 0 0 1037.72 601.58 L 1042.58 601.93 Q 1043.28 601.98 1043.07 602.65 L 1042.81 603.45 Q 1042.65 603.96 1043.19 603.98 L 1044.43 604.01 Q 1045.15 604.03 1045.02 603.32 L 1044.87 602.53 Q 1044.73 601.80 1045.47 601.74" data-darkreader-inline-stroke="" style="--darkreader-inline-stroke: #9b9386;"/>
    <path stroke="#53b6ce" vector-effect="non-scaling-stroke" d=" M 982.75 598.29 Q 981.46 603.58 982.42 608.99 Q 982.46 609.23 982.70 609.26 Q 982.85 609.28 983.00 609.29" data-darkreader-inline-stroke="" style="--darkreader-inline-stroke: #5fbbd1;"/>
    <path stroke="#abd48c" vector-effect="non-scaling-stroke" d=" M 983.00 609.29 L 982.75 609.54" data-darkreader-inline-stroke="" style="--darkreader-inline-stroke: #a9d389;"/>
    <path stroke="#a7d8a5" vector-effect="non-scaling-stroke" d=" M 982.75 609.54 Q 975.87 613.90 979.69 621.56 Q 980.09 622.37 979.00 622.96" data-darkreader-inline-stroke="" style="--darkreader-inline-stroke: #9fd49c;"/>
    <path stroke="#8b7c83" vector-effect="non-scaling-stroke" d=" M 979.00 622.96 L 966.29 623.00" data-darkreader-inline-stroke="" style="--darkreader-inline-stroke: #9a9184;"/>
    <path stroke="#877177" vector-effect="non-scaling-stroke" d=" M 1010.96 622.75 L 994.00 622.96" data-darkreader-inline-stroke="" style="--darkreader-inline-stroke: #9a9184;"/>
    <path stroke="#98bd7e" vector-effect="non-scaling-stroke" d=" M 994.00 622.96 Q 997.58 617.15 994.49 611.60" data-darkreader-inline-stroke="" style="--darkreader-inline-stroke: #9cc083;"/>
    <path stroke="#3ca5bd" vector-effect="non-scaling-stroke" d=" M 994.49 611.60 Q 995.35 604.95 995.00 598.29" data-darkreader-inline-stroke="" style="--darkreader-inline-stroke: #54b3c9;"/>
    <path stroke="#3ca5bd" vector-effect="non-scaling-stroke" d=" M 988.00 598.29 L 987.50 607.96" data-darkreader-inline-stroke="" style="--darkreader-inline-stroke: #54b3c9;"/>
    <path stroke="#a7c980" vector-effect="non-scaling-stroke" d=" M 987.50 607.96 Q 985.10 608.14 983.00 609.29" data-darkreader-inline-stroke="" style="--darkreader-inline-stroke: #a9ca82;"/>
    <path stroke="#85b679" vector-effect="non-scaling-stroke" d=" M 994.49 611.60 Q 991.62 608.49 988.00 608.29" data-darkreader-inline-stroke="" style="--darkreader-inline-stroke: #8cba80;"/>
    <path stroke="#94c37b" vector-effect="non-scaling-stroke" d=" M 988.00 608.29 L 987.50 607.96" data-darkreader-inline-stroke="" style="--darkreader-inline-stroke: #98c580;"/>
    <path stroke="#efdb3b" vector-effect="non-scaling-stroke" d=" M 988.00 608.29 L 988.25 622.96" data-darkreader-inline-stroke="" style="--darkreader-inline-stroke: #f0dd47;"/>
    <path stroke="#de8f35" vector-effect="non-scaling-stroke" d=" M 988.25 622.96 Q 984.87 623.62 981.50 622.96" data-darkreader-inline-stroke="" style="--darkreader-inline-stroke: #e19846;"/>
    <path stroke="#faeb57" vector-effect="non-scaling-stroke" d=" M 981.50 622.96 Q 981.17 616.15 982.75 609.54" data-darkreader-inline-stroke="" style="--darkreader-inline-stroke: #faeb58;"/>
    <path stroke="#cf8233" vector-effect="non-scaling-stroke" d=" M 994.00 622.96 L 988.25 622.96" data-darkreader-inline-stroke="" style="--darkreader-inline-stroke: #d48e47;"/>
    <path stroke="#da924e" vector-effect="non-scaling-stroke" d=" M 981.50 622.96 L 979.00 622.96" data-darkreader-inline-stroke="" style="--darkreader-inline-stroke: #dc9959;"/>
    <path stroke="#d48c87" vector-effect="non-scaling-stroke" d=" M 1017.46 667.75 L 988.25 668.04" data-darkreader-inline-stroke="" style="--darkreader-inline-stroke: #d38b85;"/>
    <path stroke="#de9995" vector-effect="non-scaling-stroke" d=" M 988.25 668.04 L 987.50 667.96" data-darkreader-inline-stroke="" style="--darkreader-inline-stroke: #dc928e;"/>
    <path stroke="#cb3a30" vector-effect="non-scaling-stroke" d=" M 987.50 667.96 Q 988.39 663.45 988.25 658.89 C 988.00 650.93 988.08 643.00 987.75 635.04" data-darkreader-inline-stroke="" style="--darkreader-inline-stroke: #d45148;"/>
    <path stroke="#82676f" vector-effect="non-scaling-stroke" d=" M 987.75 635.04 L 990.60 634.73 Q 991.25 634.66 991.25 634.00 L 991.25 626.43 Q 991.25 625.87 990.69 625.84 L 987.28 625.71 Q 986.62 625.68 986.61 626.34 L 986.50 634.46" data-darkreader-inline-stroke="" style="--darkreader-inline-stroke: #9e9689;"/>
    <path stroke="#cb3a30" vector-effect="non-scaling-stroke" d=" M 986.50 634.46 L 984.50 634.46" data-darkreader-inline-stroke="" style="--darkreader-inline-stroke: #d45148;"/>
    <path stroke="#877177" vector-effect="non-scaling-stroke" d=" M 984.50 634.46 L 984.46 626.46 Q 984.46 625.89 983.90 625.84 L 980.93 625.53 Q 980.32 625.47 980.29 626.08 L 979.96 631.75" data-darkreader-inline-stroke="" style="--darkreader-inline-stroke: #9a9184;"/>
    <path stroke="#cb3a30" vector-effect="non-scaling-stroke" d=" M 979.96 631.75 Q 978.72 632.59 978.04 631.50" data-darkreader-inline-stroke="" style="--darkreader-inline-stroke: #d45148;"/>
    <path stroke="#8b7c83" vector-effect="non-scaling-stroke" d=" M 978.04 631.50 L 978.00 626.13 Q 977.99 625.52 977.38 625.51 L 974.34 625.49 Q 973.75 625.49 973.75 626.08 L 973.71 634.25" data-darkreader-inline-stroke="" style="--darkreader-inline-stroke: #9a9184;"/>
    <path stroke="#cb3a30" vector-effect="non-scaling-stroke" d=" M 973.71 634.25 Q 972.43 633.50 971.50 634.71" data-darkreader-inline-stroke="" style="--darkreader-inline-stroke: #d45148;"/>
    <path stroke="#8b7c83" vector-effect="non-scaling-stroke" d=" M 971.50 634.71 L 971.70 626.14 Q 971.71 625.60 971.17 625.61 L 967.81 625.66 Q 967.20 625.67 967.19 626.28 L 967.00 634.46" data-darkreader-inline-stroke="" style="--darkreader-inline-stroke: #9a9184;"/>
    <path stroke="#cb3a30" vector-effect="non-scaling-stroke" d=" M 967.00 634.46 L 965.00 634.71" data-darkreader-inline-stroke="" style="--darkreader-inline-stroke: #d45148;"/>
    <path stroke="#df9789" vector-effect="non-scaling-stroke" d=" M 965.00 634.71 L 965.00 625.79" data-darkreader-inline-stroke="" style="--darkreader-inline-stroke: #de9384;"/>
    <path stroke="#cb3a30" vector-effect="non-scaling-stroke" d=" M 965.00 625.79 Q 965.88 624.62 965.50 623.29" data-darkreader-inline-stroke="" style="--darkreader-inline-stroke: #d45148;"/>
    <path stroke="#877177" vector-effect="non-scaling-stroke" d=" M 1004.1530 626.2830 A 0.80 0.80 0.0 0 0 1003.3433 625.4929 L 1000.4835 625.5278 A 0.80 0.80 0.0 0 0 999.6934 626.3375 L 999.7870 633.9970 A 0.80 0.80 0.0 0 0 1000.5967 634.7871 L 1003.4565 634.7522 A 0.80 0.80 0.0 0 0 1004.2466 633.9425 L 1004.1530 626.2830" data-darkreader-inline-stroke="" style="--darkreader-inline-stroke: #9a9184;"/>
    <path stroke="#877177" vector-effect="non-scaling-stroke" d=" M 1010.7631 626.4179 A 0.85 0.85 0.0 0 0 1009.9160 625.5649 L 1007.1161 625.5551 A 0.85 0.85 0.0 0 0 1006.2631 626.4022 L 1006.2369 633.9021 A 0.85 0.85 0.0 0 0 1007.0840 634.7551 L 1009.8839 634.7649 A 0.85 0.85 0.0 0 0 1010.7369 633.9178 L 1010.7631 626.4179" data-darkreader-inline-stroke="" style="--darkreader-inline-stroke: #9a9184;"/>
    <path stroke="#df9789" vector-effect="non-scaling-stroke" d=" M 1017.25 626.02 A 0.48 0.48 0.0 0 0 1016.77 625.54 L 1013.23 625.54 A 0.48 0.48 0.0 0 0 1012.75 626.02 L 1012.75 634.28 A 0.48 0.48 0.0 0 0 1013.23 634.76 L 1016.77 634.76 A 0.48 0.48 0.0 0 0 1017.25 634.28 L 1017.25 626.02" data-darkreader-inline-stroke="" style="--darkreader-inline-stroke: #de9384;"/>
    <path stroke="#df9789" vector-effect="non-scaling-stroke" d=" M 1023.2213 626.0268 A 0.51 0.51 0.0 0 0 1022.7078 625.5204 L 1019.9279 625.5398 A 0.51 0.51 0.0 0 0 1019.4214 626.0534 L 1019.4787 634.2532 A 0.51 0.51 0.0 0 0 1019.9922 634.7596 L 1022.7721 634.7402 A 0.51 0.51 0.0 0 0 1023.2786 634.2266 L 1023.2213 626.0268" data-darkreader-inline-stroke="" style="--darkreader-inline-stroke: #de9384;"/>
    <path stroke="#877177" vector-effect="non-scaling-stroke" d=" M 997.7637 626.3874 A 0.64 0.64 0.0 0 0 997.1259 625.7452 L 994.1660 625.7349 A 0.64 0.64 0.0 0 0 993.5237 626.3726 L 993.4963 634.2326 A 0.64 0.64 0.0 0 0 994.1341 634.8748 L 997.0940 634.8851 A 0.64 0.64 0.0 0 0 997.7363 634.2474 L 997.7637 626.3874" data-darkreader-inline-stroke="" style="--darkreader-inline-stroke: #9a9184;"/>
    <path stroke="#eb9b8d" vector-effect="non-scaling-stroke" d=" M 965.00 625.79 L 961.12 625.63 Q 960.50 625.60 960.50 626.22 L 960.50 634.05 Q 960.50 634.71 961.16 634.71 L 965.00 634.71" data-darkreader-inline-stroke="" style="--darkreader-inline-stroke: #e99384;"/>
    <path stroke="#977f87" vector-effect="non-scaling-stroke" d=" M 967.00 634.46 L 971.50 634.71" data-darkreader-inline-stroke="" style="--darkreader-inline-stroke: #9f968a;"/>
    <path stroke="#977f87" vector-effect="non-scaling-stroke" d=" M 973.71 634.25 Q 975.54 635.24 977.49 634.61 Q 977.98 634.45 977.99 633.94 L 978.04 631.50" data-darkreader-inline-stroke="" style="--darkreader-inline-stroke: #9f968a;"/>
    <path stroke="#93747b" vector-effect="non-scaling-stroke" d=" M 979.96 631.75 L 980.28 634.25 Q 980.35 634.74 980.84 634.71 L 984.50 634.46" data-darkreader-inline-stroke="" style="--darkreader-inline-stroke: #9a9184;"/>
    <path stroke="#8e6a73" vector-effect="non-scaling-stroke" d=" M 986.50 634.46 L 987.75 635.04" data-darkreader-inline-stroke="" style="--darkreader-inline-stroke: #9a9184;"/>
    <path stroke="#ea9c99" vector-effect="non-scaling-stroke" d=" M 987.50 667.96 L 959.50 667.96" data-darkreader-inline-stroke="" style="--darkreader-inline-stroke: #e8918d;"/>
    <path stroke="#eb9b8d" vector-effect="non-scaling-stroke" d=" M 958.5076 625.7740 A 0.27 0.27 0.0 0 0 958.2381 625.5035 L 954.2381 625.4965 A 0.27 0.27 0.0 0 0 953.9676 625.7660 L 953.9524 634.4660 A 0.27 0.27 0.0 0 0 954.2219 634.7365 L 958.2219 634.7435 A 0.27 0.27 0.0 0 0 958.4924 634.4740 L 958.5076 625.7740" data-darkreader-inline-stroke="" style="--darkreader-inline-stroke: #e99384;"/>
    <path stroke="#1dceff" vector-effect="non-scaling-stroke" d=" M 809.00 880.79 Q 805.20 883.13 801.06 884.81 Q 779.94 893.39 758.56 901.32 C 674.91 932.36 588.55 950.97 499.75 959.49 C 452.20 964.05 403.09 964.82 357.23 958.03 Q 291.55 948.30 229.24 918.51 C 164.60 887.59 94.38 843.41 40.21 809.78 Q 36.66 807.57 29.54 803.56 Q 29.09 803.31 28.84 802.87 L 28.43 802.18" data-darkreader-inline-stroke="" style="--darkreader-inline-stroke: #2ed2ff;"/>
    <path stroke="#f4eff0" vector-effect="non-scaling-stroke" d=" M 988.25 668.04 L 987.98 672.56 Q 987.95 673.18 987.33 673.20 L 981.00 673.46" data-darkreader-inline-stroke="" style="--darkreader-inline-stroke: #dfddd9;"/>
    <path stroke="#ed7e8c" vector-effect="non-scaling-stroke" d=" M 981.00 673.46 L 960.25 673.54" data-darkreader-inline-stroke="" style="--darkreader-inline-stroke: #ec7887;"/>
    <path stroke="#d7717c" vector-effect="non-scaling-stroke" d=" M 1016.75 673.54 L 987.75 673.54" data-darkreader-inline-stroke="" style="--darkreader-inline-stroke: #d8747f;"/>
    <path stroke="#e3717e" vector-effect="non-scaling-stroke" d=" M 987.75 673.54 L 981.00 673.46" data-darkreader-inline-stroke="" style="--darkreader-inline-stroke: #e3717e;"/>
    <path stroke="#d00018" vector-effect="non-scaling-stroke" d=" M 987.75 673.54 C 988.80 682.02 987.94 691.18 987.99 699.75 C 987.99 700.92 987.43 702.15 987.50 703.46" data-darkreader-inline-stroke="" style="--darkreader-inline-stroke: #ff3a51;"/>
    <path stroke="#ed7e8c" vector-effect="non-scaling-stroke" d=" M 987.50 703.46 L 957.50 703.46" data-darkreader-inline-stroke="" style="--darkreader-inline-stroke: #ec7887;"/>
    <path stroke="#d3707c" vector-effect="non-scaling-stroke" d=" M 1019.21 703.75 L 987.91 703.55" data-darkreader-inline-stroke="" style="--darkreader-inline-stroke: #d47480;"/>
    <path stroke="#e17e8a" vector-effect="non-scaling-stroke" d=" M 987.91 703.55 Q 987.63 703.50 987.50 703.46" data-darkreader-inline-stroke="" style="--darkreader-inline-stroke: #e07b88;"/>
    <path stroke="#efedf0" vector-effect="non-scaling-stroke" d=" M 987.91 703.55 L 987.87 752.96" data-darkreader-inline-stroke="" style="--darkreader-inline-stroke: #dedbd6;"/>
    <path stroke="#e17e8a" vector-effect="non-scaling-stroke" d=" M 987.87 752.96 L 964.25 753.04" data-darkreader-inline-stroke="" style="--darkreader-inline-stroke: #e07b88;"/>
    <path stroke="#ed7e8c" vector-effect="non-scaling-stroke" d=" M 964.25 753.04 L 953.25 753.04" data-darkreader-inline-stroke="" style="--darkreader-inline-stroke: #ec7887;"/>
    <path stroke="#d3707c" vector-effect="non-scaling-stroke" d=" M 1023.66 752.79 L 987.87 752.96" data-darkreader-inline-stroke="" style="--darkreader-inline-stroke: #d47480;"/>
    <path stroke="#d3707c" vector-effect="non-scaling-stroke" d=" M 1028.11 801.93 L 988.25 801.79" data-darkreader-inline-stroke="" style="--darkreader-inline-stroke: #d47480;"/>
    <path stroke="#e17e8a" vector-effect="non-scaling-stroke" d=" M 988.25 801.79 L 987.75 801.71" data-darkreader-inline-stroke="" style="--darkreader-inline-stroke: #e07b88;"/>
    <path stroke="#d00018" vector-effect="non-scaling-stroke" d=" M 987.75 801.71 L 988.11 754.80 A 0.56 0.56 0.0 0 0 987.54 754.24 L 965.15 754.61 Q 964.61 754.62 964.49 754.10 L 964.25 753.04" data-darkreader-inline-stroke="" style="--darkreader-inline-stroke: #ff3a51;"/>
    <path stroke="#ed7e8c" vector-effect="non-scaling-stroke" d=" M 987.75 801.71 L 949.36 801.78 Q 948.83 801.78 948.85 801.26 L 948.96 798.50" data-darkreader-inline-stroke="" style="--darkreader-inline-stroke: #ec7887;"/>
    <path stroke="#35d2fd" vector-effect="non-scaling-stroke" d=" M 1554.18 1200.00 Q 1552.51 1198.82 1546.48 1193.52 Q 1516.53 1167.23 1479.24 1141.02 C 1443.86 1116.16 1389.76 1084.73 1344.88 1099.31 C 1331.52 1103.65 1318.91 1110.94 1306.50 1117.29" data-darkreader-inline-stroke="" style="--darkreader-inline-stroke: #3fd4fd;"/>
    <path stroke="#1dceff" vector-effect="non-scaling-stroke" d=" M 1306.50 1117.29 C 1248.41 1050.78 1186.32 985.86 1117.91 929.86 C 1088.58 905.84 1058.43 884.95 1025.54 868.14 Q 1024.97 867.85 1025.24 867.28 Q 1025.91 865.87 1027.75 865.54" data-darkreader-inline-stroke="" style="--darkreader-inline-stroke: #2ed2ff;"/>
    <path stroke="#63648b" vector-effect="non-scaling-stroke" d=" M 1027.75 865.54 L 1033.75 864.21" data-darkreader-inline-stroke="" style="--darkreader-inline-stroke: #9d9488;"/>
    <path stroke="#9be8ff" vector-effect="non-scaling-stroke" d=" M 945.18 843.97 Q 963.79 845.76 981.61 850.82 C 982.49 851.07 983.34 850.98 984.25 851.04" data-darkreader-inline-stroke="" style="--darkreader-inline-stroke: #86e3ff;"/>
    <path stroke="#7f6a8b" vector-effect="non-scaling-stroke" d=" M 984.25 851.04 Q 983.82 851.08 983.56 851.28 Q 983.03 851.67 983.69 851.76 Q 988.52 852.43 990.69 853.28 Q 1003.57 858.33 1016.50 863.21" data-darkreader-inline-stroke="" style="--darkreader-inline-stroke: #9b9285;"/>
    <path stroke="#3fb6d9" vector-effect="non-scaling-stroke" d=" M 1016.50 863.21 Q 1017.22 865.29 1019.50 864.71" data-darkreader-inline-stroke="" style="--darkreader-inline-stroke: #4ebcdc;"/>
    <path stroke="#7f6a8b" vector-effect="non-scaling-stroke" d=" M 1019.50 864.71 C 1021.45 866.85 1025.24 865.88 1027.75 865.54" data-darkreader-inline-stroke="" style="--darkreader-inline-stroke: #9b9285;"/>
    <path stroke="#51d8fd" vector-effect="non-scaling-stroke" d=" M 1306.50 1117.29 C 1245.34 1153.00 1180.35 1176.83 1111.18 1188.89 Q 1079.07 1194.48 1046.49 1193.29 C 992.58 1191.32 941.47 1166.82 893.70 1144.02 Q 864.65 1130.16 835.56 1116.37 Q 821.35 1109.63 808.98 1105.05 C 726.27 1074.44 661.85 1131.71 624.92 1198.76 C 624.73 1199.11 624.77 1199.61 624.69 1200.00" data-darkreader-inline-stroke="" style="--darkreader-inline-stroke: #53d8fd;"/>
    <path stroke="#efedf0" vector-effect="non-scaling-stroke" d=" M 988.25 801.79 Q 987.82 825.72 988.00 849.65 C 988.00 850.37 987.84 850.40 987.50 850.96" data-darkreader-inline-stroke="" style="--darkreader-inline-stroke: #dedbd6;"/>
    <path stroke="#e17e8a" vector-effect="non-scaling-stroke" d=" M 987.50 850.96 L 984.25 851.04" data-darkreader-inline-stroke="" style="--darkreader-inline-stroke: #e07b88;"/>
    <path stroke="#d3707c" vector-effect="non-scaling-stroke" d=" M 1032.54 850.99 L 987.50 850.96" data-darkreader-inline-stroke="" style="--darkreader-inline-stroke: #d47480;"/>
    <path stroke="#854c64" vector-effect="non-scaling-stroke" d=" M 1019.50 864.71 L 1016.50 863.21" data-darkreader-inline-stroke="" style="--darkreader-inline-stroke: #b78198;"/>
  </g>
  <path d="M -533.394 -417.334 L 1066.606 -417.334 L 1066.606 468.976 L 1055.416 468.756 C 1054.894 468.743 1054.397 468.544 1054.016 468.196 C 1033.416 449.343 1011.999 431.533 989.766 414.766 C 945.646 381.486 894.626 351.406 838.336 346.536 C 804.566 343.606 771.686 356.016 741.346 368.646 C 713.633 380.193 688.639 390.293 666.366 398.946 C 612.473 419.906 557.136 435.883 500.356 446.876 L 499.146 433.656 L 494.716 384.596 L 490.266 335.456 C 490.806 334.476 490.316 333.496 490.226 332.606 C 488.753 317.573 487.463 302.523 486.356 287.456 C 494.416 287.266 505.486 281.126 511.906 276.456 C 542.436 254.246 558.036 220.946 553.476 183.026 C 547.656 134.606 507.426 99.616 459.536 97.816 C 452.843 97.563 446.213 98.056 439.646 99.296 C 400.256 106.736 370.116 135.476 360.916 174.766 C 360.389 177.026 359.999 179.64 359.746 182.606 C 359.186 189.256 358.306 196.136 358.816 202.356 C 361.026 229.376 374.156 256.656 396.556 272.946 C 405.576 279.506 412.346 283.916 422.026 286.936 C 422.719 291.343 422.849 296.19 422.416 301.476 C 421.476 312.976 420.563 322.353 419.676 329.606 C 419.556 330.586 420.136 331.706 419.336 332.696 C 419.143 332.93 419.016 333.196 418.956 333.496 L 418.606 335.236 C 418.546 335.543 418.643 335.61 418.896 335.436 C 419.249 335.19 419.569 335.28 419.856 335.706 L 415.566 381.166 C 414.206 382.56 413.569 384.2 413.656 386.086 C 413.756 388.24 413.803 389.356 413.796 389.436 C 413.023 401.816 412.353 414.216 411.786 426.636 C 386.986 424.196 363.206 429.776 340.416 438.226 C 321.003 445.42 300.276 453.753 278.236 463.226 C 277.936 463.36 277.623 463.426 277.296 463.426 L 275.606 463.456 C 232.559 459.463 191.046 449.28 151.066 432.906 C 103.626 413.476 58.936 388.136 15.176 361.596 C -36.524 330.226 -87.774 298.086 -139.934 267.476 C -158.854 256.376 -178.591 247.69 -199.144 241.416 C -327.664 202.176 -434.844 287.886 -504.964 384.846 C -514.331 379.693 -523.467 374.246 -532.374 368.506 C -532.667 368.32 -532.931 368.353 -533.164 368.606 L -533.394 368.856 L -533.394 -417.334 Z" style="--darkreader-inline-fill: #ccc8c1; fill: rgb(26, 27, 30); transform-origin: 266.606px 25.821px;" data-darkreader-inline-fill=""/>
  <path d="M 486.356 287.456 L 485.816 286.416 L 483.356 256.206 L 483.786 255.876 C 484.039 255.683 484.316 255.623 484.616 255.696 C 486.809 256.25 489.039 256.353 491.306 256.006 C 492.151 255.874 492.757 255.125 492.706 254.276 L 492.566 251.996 C 492.506 251.083 492.019 250.616 491.106 250.596 L 484.066 250.416 L 484.106 220.436 C 484.106 220.09 484.276 219.916 484.616 219.916 L 491.606 219.916 C 492.106 219.916 492.356 219.666 492.356 219.166 L 492.356 206.206 C 492.356 205.853 492.179 205.673 491.826 205.666 L 477.566 205.416 L 477.766 180.846 C 477.766 180.486 477.616 180.403 477.316 180.596 C 475.876 181.526 464.126 180.926 461.606 180.956 L 454.606 180.956 L 449.356 180.956 L 433.086 180.926 C 432.879 180.926 432.743 180.826 432.676 180.626 L 432.536 180.196 C 432.523 180.156 432.499 180.153 432.466 180.186 C 432.393 180.253 432.323 180.323 432.256 180.396 C 432.149 180.503 432.099 180.636 432.106 180.796 C 432.276 185.326 431.826 204.506 432.896 205.666 L 432.106 205.956 L 418.716 206.006 C 418.309 206.013 418.106 206.22 418.106 206.626 L 418.106 219.416 C 418.106 219.75 418.273 219.916 418.606 219.916 L 425.566 219.916 C 425.913 219.916 426.086 220.093 426.086 220.446 L 426.106 250.626 C 423.233 250.373 420.376 250.53 417.536 251.096 C 417.203 251.163 417.006 251.363 416.946 251.696 C 415.976 257.306 423.566 256.436 426.856 256.206 L 424.106 286.126 L 422.026 286.936 C 412.346 283.916 405.576 279.506 396.556 272.946 C 374.156 256.656 361.026 229.376 358.816 202.356 C 358.306 196.136 359.186 189.256 359.746 182.606 C 359.999 179.64 360.389 177.026 360.916 174.766 C 370.116 135.476 400.256 106.736 439.646 99.296 C 446.213 98.056 452.843 97.563 459.536 97.816 C 507.426 99.616 547.656 134.606 553.476 183.026 C 558.036 220.946 542.436 254.246 511.906 276.456 C 505.486 281.126 494.416 287.266 486.356 287.456 Z M 452.396 153.416 C 452.523 153.956 452.343 154.28 451.856 154.386 C 439.909 156.98 433.316 164.393 432.076 176.626 C 432.046 176.911 432.27 177.158 432.556 177.156 L 454.956 177.156 L 477.506 177.156 C 477.886 177.156 478.056 176.97 478.016 176.596 C 476.776 164.376 470.209 156.976 458.316 154.396 C 458.009 154.33 457.856 154.14 457.856 153.826 C 457.856 151.476 458.426 144.686 457.386 142.886 C 456.216 140.846 452.626 141.696 452.416 143.976 C 452.283 145.343 452.276 148.49 452.396 153.416 Z M 518.206 180.526 C 518.039 181.006 518.093 181.44 518.366 181.826 C 518.666 182.246 518.996 182.273 519.356 181.906 C 520.516 180.726 521.859 180.653 523.386 181.686 C 523.526 181.786 523.673 181.79 523.826 181.696 L 524.166 181.496 C 524.759 181.143 524.736 180.843 524.096 180.596 L 515.796 177.396 C 515.583 177.31 515.416 177.363 515.296 177.556 C 515.229 177.663 515.136 177.766 515.016 177.866 C 514.769 178.073 514.793 178.243 515.086 178.376 L 517.826 179.616 C 518.226 179.803 518.353 180.106 518.206 180.526 Z M 512.076 184.406 L 515.806 184.076 C 516.146 184.043 516.333 183.86 516.366 183.526 C 516.466 182.556 512.036 182.556 511.206 182.446 C 510.899 182.406 510.659 182.516 510.486 182.776 C 510.156 183.266 506.096 182.396 504.196 183.816 C 504.049 183.929 504.079 184.158 504.25 184.228 C 504.274 184.238 504.3 184.245 504.326 184.246 L 509.186 184.596 C 509.653 184.63 509.816 184.87 509.676 185.316 L 509.416 186.116 C 509.309 186.456 509.436 186.633 509.796 186.646 L 511.036 186.676 C 511.516 186.69 511.713 186.46 511.626 185.986 L 511.476 185.196 C 511.383 184.71 511.583 184.446 512.076 184.406 Z" style="--darkreader-inline-fill: #312400; fill: rgb(199, 169, 103); transform-origin: 456.46px 192.604px;" data-darkreader-inline-fill=""/>
  <path fill="#be362c" d="M 454.956 177.156 L 454.656 155.226 C 454.649 154.866 454.493 154.6 454.186 154.426 L 452.396 153.416 C 452.276 148.49 452.283 145.343 452.416 143.976 C 452.626 141.696 456.216 140.846 457.386 142.886 C 458.426 144.686 457.856 151.476 457.856 153.826 C 457.856 154.14 458.009 154.33 458.316 154.396 C 470.209 156.976 476.776 164.376 478.016 176.596 C 478.056 176.97 477.886 177.156 477.506 177.156 L 454.956 177.156 Z" style="--darkreader-inline-fill: #d75a51; transform-origin: 465.166px 159.444px;" data-darkreader-inline-fill=""/>
  <path fill="#d73d33" d="M 452.396 153.416 L 454.186 154.426 C 454.493 154.6 454.649 154.866 454.656 155.226 L 454.956 177.156 L 432.556 177.156 C 432.27 177.158 432.046 176.911 432.076 176.626 C 433.316 164.393 439.909 156.98 451.856 154.386 C 452.343 154.28 452.523 153.956 452.396 153.416 Z" style="--darkreader-inline-fill: #db4f46; transform-origin: 443.515px 165.286px;" data-darkreader-inline-fill=""/>
  <path fill="#000000" d="M 517.826 179.616 L 515.086 178.376 C 514.793 178.243 514.769 178.073 515.016 177.866 C 515.136 177.766 515.229 177.663 515.296 177.556 C 515.416 177.363 515.583 177.31 515.796 177.396 L 524.096 180.596 C 524.736 180.843 524.759 181.143 524.166 181.496 L 523.826 181.696 C 523.673 181.79 523.526 181.786 523.386 181.686 C 521.859 180.653 520.516 180.726 519.356 181.906 C 518.996 182.273 518.666 182.246 518.366 181.826 C 518.093 181.44 518.039 181.006 518.206 180.526 C 518.353 180.106 518.226 179.803 517.826 179.616 Z" style="--darkreader-inline-fill: #e8e6e3; transform-origin: 519.721px 179.759px;" data-darkreader-inline-fill=""/>
  <path fill="#57c1da" d="M 449.356 180.956 C 448.496 184.483 448.386 188.05 449.026 191.656 C 449.053 191.816 449.146 191.906 449.306 191.926 C 449.406 191.94 449.506 191.95 449.606 191.956 L 449.356 192.206 C 444.769 195.113 443.749 199.12 446.296 204.226 C 446.563 204.766 446.333 205.233 445.606 205.626 L 432.896 205.666 C 431.826 204.506 432.276 185.326 432.106 180.796 C 432.099 180.636 432.149 180.503 432.256 180.396 C 432.323 180.323 432.393 180.253 432.466 180.186 C 432.499 180.153 432.523 180.156 432.536 180.196 L 432.676 180.626 C 432.743 180.826 432.879 180.926 433.086 180.926 L 449.356 180.956 Z" style="--darkreader-inline-fill: #60c4dc; transform-origin: 440.856px 192.915px;" data-darkreader-inline-fill=""/>
  <path fill="#4fabc2" d="M 477.566 205.416 L 460.606 205.626 C 462.993 201.753 463.156 197.966 461.096 194.266 C 461.669 189.833 461.839 185.396 461.606 180.956 C 464.126 180.926 475.876 181.526 477.316 180.596 C 477.616 180.403 477.766 180.486 477.766 180.846 L 477.566 205.416 Z" style="--darkreader-inline-fill: #5eb2c7; transform-origin: 469.186px 193.06px;" data-darkreader-inline-fill=""/>
  <path fill="#4fabc2" d="M 449.356 180.956 L 454.606 180.956 L 454.106 190.626 C 452.506 190.746 451.006 191.19 449.606 191.956 C 449.506 191.95 449.406 191.94 449.306 191.926 C 449.146 191.906 449.053 191.816 449.026 191.656 C 448.386 188.05 448.496 184.483 449.356 180.956 Z" style="--darkreader-inline-fill: #5eb2c7; transform-origin: 451.611px 186.456px;" data-darkreader-inline-fill=""/>
  <path fill="#299eb8" d="M 454.606 180.956 L 461.606 180.956 C 461.839 185.396 461.669 189.833 461.096 194.266 C 459.182 192.193 457.019 191.09 454.606 190.956 L 454.106 190.626 L 454.606 180.956 Z" style="--darkreader-inline-fill: #54c1d9; transform-origin: 457.907px 187.611px;" data-darkreader-inline-fill=""/>
  <path fill="#000000" d="M 511.476 185.196 L 511.626 185.986 C 511.713 186.46 511.516 186.69 511.036 186.676 L 509.796 186.646 C 509.436 186.633 509.309 186.456 509.416 186.116 L 509.676 185.316 C 509.816 184.87 509.653 184.63 509.186 184.596 L 504.326 184.246 C 504.142 184.234 504.04 184.027 504.142 183.873 C 504.157 183.851 504.175 183.832 504.196 183.816 C 506.096 182.396 510.156 183.266 510.486 182.776 C 510.659 182.516 510.899 182.406 511.206 182.446 C 512.036 182.556 516.466 182.556 516.366 183.526 C 516.333 183.86 516.146 184.043 515.806 184.076 L 512.076 184.406 C 511.583 184.446 511.383 184.71 511.476 185.196 Z" style="--darkreader-inline-fill: #e8e6e3; transform-origin: 510.235px 184.557px;" data-darkreader-inline-fill=""/>
  <path fill="#fee73d" d="M 454.106 190.626 L 454.606 190.956 L 454.856 205.626 C 452.603 206.066 450.353 206.066 448.106 205.626 C 447.886 201.086 448.303 196.613 449.356 192.206 L 449.606 191.956 C 451.006 191.19 452.506 190.746 454.106 190.626 Z" style="--darkreader-inline-fill: #fee844; transform-origin: 451.452px 198.291px;" data-darkreader-inline-fill=""/>
  <path fill="#e0ce39" d="M 454.606 190.956 C 457.019 191.09 459.183 192.193 461.096 194.266 C 463.156 197.966 462.993 201.753 460.606 205.626 L 454.856 205.626 L 454.606 190.956 Z" style="--darkreader-inline-fill: #e2d248; transform-origin: 458.567px 198.291px;" data-darkreader-inline-fill=""/>
  <path fill="#f6ee70" d="M 449.356 192.206 C 448.303 196.613 447.886 201.086 448.106 205.626 L 445.606 205.626 C 446.333 205.233 446.563 204.766 446.296 204.226 C 443.749 199.12 444.769 195.113 449.356 192.206 Z" style="--darkreader-inline-fill: #f6ed6b; transform-origin: 447.144px 198.916px;" data-darkreader-inline-fill=""/>
  <path fill="#be362c" d="M 477.566 205.416 L 491.826 205.666 C 492.179 205.673 492.356 205.853 492.356 206.206 L 492.356 219.166 C 492.356 219.666 492.106 219.916 491.606 219.916 L 484.616 219.916 C 484.276 219.916 484.106 220.09 484.106 220.436 L 484.066 250.416 L 454.856 250.706 L 454.106 250.626 C 454.699 247.62 454.949 244.596 454.856 241.556 C 454.606 233.596 454.686 225.666 454.356 217.706 L 457.206 217.396 C 457.639 217.35 457.856 217.106 457.856 216.666 L 457.856 209.096 C 457.856 208.723 457.669 208.526 457.296 208.506 L 453.886 208.376 C 453.446 208.356 453.223 208.566 453.216 209.006 L 453.106 217.126 L 451.106 217.126 L 451.066 209.126 C 451.066 208.746 450.879 208.54 450.506 208.506 L 447.536 208.196 C 447.129 208.156 446.916 208.34 446.896 208.746 L 446.566 214.416 C 445.739 214.976 445.099 214.893 444.646 214.166 L 444.606 208.796 C 444.599 208.39 444.393 208.183 443.986 208.176 L 440.946 208.156 C 440.553 208.156 440.356 208.353 440.356 208.746 L 440.316 216.916 C 439.463 216.416 438.726 216.57 438.106 217.376 L 438.306 208.806 C 438.313 208.446 438.136 208.27 437.776 208.276 L 434.416 208.326 C 434.009 208.333 433.803 208.54 433.796 208.946 L 433.606 217.126 L 431.606 217.376 L 431.606 208.456 C 432.193 207.676 432.359 206.843 432.106 205.956 L 432.896 205.666 L 445.606 205.626 L 448.106 205.626 C 450.353 206.066 452.603 206.066 454.856 205.626 L 460.606 205.626 L 477.566 205.416 Z M 470.759 208.949 C 470.753 208.507 470.391 208.154 469.949 208.159 L 467.089 208.194 C 466.648 208.199 466.294 208.562 466.299 209.004 L 466.393 216.663 C 466.398 217.105 466.761 217.459 467.203 217.453 L 470.062 217.418 C 470.504 217.413 470.858 217.05 470.852 216.609 L 470.759 208.949 Z M 477.369 209.084 C 477.371 208.615 476.991 208.233 476.522 208.231 L 473.722 208.221 C 473.253 208.22 472.871 208.599 472.869 209.068 L 472.843 216.568 C 472.841 217.038 473.22 217.42 473.69 217.421 L 476.49 217.431 C 476.959 217.433 477.341 217.053 477.343 216.584 L 477.369 209.084 Z M 483.856 208.686 C 483.856 208.421 483.641 208.206 483.376 208.206 L 479.836 208.206 C 479.571 208.206 479.356 208.421 479.356 208.686 L 479.356 216.946 C 479.356 217.211 479.571 217.426 479.836 217.426 L 483.376 217.426 C 483.641 217.426 483.856 217.211 483.856 216.946 L 483.856 208.686 Z M 489.827 208.693 C 489.825 208.411 489.595 208.185 489.314 208.187 L 486.534 208.206 C 486.252 208.208 486.025 208.438 486.027 208.72 L 486.085 216.919 C 486.087 217.201 486.316 217.428 486.598 217.426 L 489.378 217.406 C 489.66 217.404 489.886 217.174 489.884 216.893 L 489.827 208.693 Z M 464.37 209.054 C 464.371 208.7 464.085 208.413 463.732 208.411 L 460.772 208.401 C 460.418 208.4 460.131 208.685 460.13 209.039 L 460.102 216.899 C 460.101 217.252 460.387 217.54 460.74 217.541 L 463.7 217.551 C 464.053 217.553 464.341 217.267 464.342 216.914 L 464.37 209.054 Z" style="--darkreader-inline-fill: #982b23; transform-origin: 461.981px 228.061px;" data-darkreader-inline-fill=""/>
  <path fill="#d73d33" d="M 432.106 205.956 C 432.359 206.843 432.193 207.676 431.606 208.456 L 427.726 208.296 C 427.313 208.276 427.106 208.473 427.106 208.886 L 427.106 216.716 C 427.106 217.156 427.326 217.376 427.766 217.376 L 431.606 217.376 L 433.606 217.126 L 438.106 217.376 C 438.726 216.57 439.463 216.416 440.316 216.916 C 441.536 217.576 442.796 217.696 444.096 217.276 C 444.423 217.17 444.589 216.946 444.596 216.606 L 444.646 214.166 C 445.099 214.893 445.739 214.976 446.566 214.416 L 446.886 216.916 C 446.933 217.243 447.119 217.396 447.446 217.376 L 451.106 217.126 L 453.106 217.126 L 454.356 217.706 C 454.686 225.666 454.606 233.596 454.856 241.556 C 454.949 244.596 454.699 247.62 454.106 250.626 L 426.106 250.626 L 426.086 220.446 C 426.086 220.093 425.913 219.916 425.566 219.916 L 418.606 219.916 C 418.273 219.916 418.106 219.75 418.106 219.416 L 418.106 206.626 C 418.106 206.22 418.309 206.013 418.716 206.006 L 432.106 205.956 Z M 425.113 208.44 C 425.114 208.291 424.993 208.17 424.844 208.17 L 420.844 208.163 C 420.695 208.162 420.574 208.283 420.573 208.432 L 420.558 217.132 C 420.558 217.281 420.679 217.402 420.828 217.403 L 424.828 217.41 C 424.977 217.41 425.098 217.289 425.098 217.14 L 425.113 208.44 Z" style="--darkreader-inline-fill: #db4f46; transform-origin: 436.49px 228.291px;" data-darkreader-inline-fill=""/>
  <rect x="-2.27" y="-4.62" transform="matrix(0.9999979734420777, 0.0017450001323595643, -0.0017450001323595643, 0.9999979734420777, 422.8360416542296, 212.7861086364419)" width="4.54" height="9.24" rx="0.27" data-darkreader-inline-fill="" style="--darkreader-inline-fill: #ffecba; fill: rgb(214, 214, 214);"/>
  <path d="M 431.606 208.456 L 431.606 217.376 L 427.766 217.376 C 427.326 217.376 427.106 217.156 427.106 216.716 L 427.106 208.886 C 427.106 208.473 427.313 208.276 427.726 208.296 L 431.606 208.456 Z" style="--darkreader-inline-fill: #ffecba; fill: rgb(214, 214, 214); transform-origin: 429.356px 212.835px;" data-darkreader-inline-fill=""/>
  <path fill="#57c1da" d="M 438.106 217.376 L 433.606 217.126 L 433.796 208.946 C 433.803 208.54 434.009 208.333 434.416 208.326 L 437.776 208.276 C 438.136 208.27 438.313 208.446 438.306 208.806 L 438.106 217.376 Z" style="--darkreader-inline-fill: #60c4dc; transform-origin: 435.956px 212.826px;" data-darkreader-inline-fill=""/>
  <path fill="#57c1da" d="M 444.646 214.166 L 444.596 216.606 C 444.589 216.946 444.423 217.17 444.096 217.276 C 442.796 217.696 441.536 217.576 440.316 216.916 L 440.356 208.746 C 440.356 208.353 440.553 208.156 440.946 208.156 L 443.986 208.176 C 444.393 208.183 444.599 208.39 444.606 208.796 L 444.646 214.166 Z" style="--darkreader-inline-fill: #60c4dc; transform-origin: 442.481px 212.839px;" data-darkreader-inline-fill=""/>
  <path fill="#4fabc2" d="M 451.106 217.126 L 447.446 217.376 C 447.119 217.396 446.933 217.243 446.886 216.916 L 446.566 214.416 L 446.896 208.746 C 446.916 208.34 447.129 208.156 447.536 208.196 L 450.506 208.506 C 450.879 208.54 451.066 208.746 451.066 209.126 L 451.106 217.126 Z" style="--darkreader-inline-fill: #5eb2c7; transform-origin: 448.836px 212.784px;" data-darkreader-inline-fill=""/>
  <rect fill="#4fabc2" x="-2.23" y="-4.63" transform="matrix(0.9999250173568727, -0.012217000126838686, 0.012217000126838686, 0.9999250173568727, 468.576063769342, 212.8061281682883)" width="4.46" height="9.26" rx="0.8" data-darkreader-inline-fill="" style="--darkreader-inline-fill: #5eb2c7;"/>
  <rect fill="#4fabc2" x="-2.25" y="-4.6" transform="matrix(0.9999939799308777, 0.0034910000395029783, -0.0034910000395029783, 0.9999939799308777, 475.1060932608266, 212.82608666497708)" width="4.5" height="9.2" rx="0.85" data-darkreader-inline-fill="" style="--darkreader-inline-fill: #5eb2c7;"/>
  <rect x="479.356" y="208.206" width="4.5" height="9.22" rx="0.48" data-darkreader-inline-fill="" style="--darkreader-inline-fill: #ffecba; fill: rgb(214, 214, 214);"/>
  <rect x="-1.9" y="-4.61" transform="matrix(0.9999759793281556, -0.0069809998385608205, 0.0069809998385608205, 0.9999759793281556, 487.9560081945656, 212.8061281682883)" width="3.8" height="9.22" rx="0.51" data-darkreader-inline-fill="" style="--darkreader-inline-fill: #ffecba; fill: rgb(214, 214, 214);"/>
  <path fill="#4597b2" d="M 454.356 217.706 L 453.106 217.126 L 453.216 209.006 C 453.223 208.566 453.446 208.356 453.886 208.376 L 457.296 208.506 C 457.669 208.526 457.856 208.723 457.856 209.096 L 457.856 216.666 C 457.856 217.106 457.639 217.35 457.206 217.396 L 454.356 217.706 Z" style="--darkreader-inline-fill: #5ea8c0; transform-origin: 455.481px 213.04px;" data-darkreader-inline-fill=""/>
  <rect fill="#4fabc2" x="-2.12" y="-4.57" transform="matrix(0.9999939799308777, 0.0034910000395029783, -0.0034910000395029783, 0.9999939799308777, 462.23615879524186, 212.97611108351066)" width="4.24" height="9.14" rx="0.64" data-darkreader-inline-fill="" style="--darkreader-inline-fill: #5eb2c7;"/>
  <path d="M 275.606 463.456 C 273.073 465.016 270.426 466.356 267.666 467.476 C 253.586 473.196 239.419 478.7 225.166 483.986 C 141.516 515.026 55.156 533.636 -33.644 542.156 C -81.194 546.716 -130.304 547.486 -176.164 540.696 C -219.951 534.21 -262.614 521.036 -304.154 501.176 C -368.794 470.256 -439.014 426.076 -493.184 392.446 C -495.551 390.973 -499.107 388.9 -503.854 386.226 C -504.154 386.06 -504.387 385.83 -504.554 385.536 L -504.964 384.846 C -434.844 287.886 -327.664 202.176 -199.144 241.416 C -178.591 247.69 -158.854 256.376 -139.934 267.476 C -87.774 298.086 -36.524 330.226 15.176 361.596 C 58.936 388.136 103.626 413.476 151.066 432.906 C 191.046 449.28 232.559 459.463 275.606 463.456 Z" style="--darkreader-inline-fill: #009fcb; fill: rgb(0, 97, 124); transform-origin: -114.679px 388.682px;" data-darkreader-inline-fill=""/>
  <path d="M 426.106 250.626 L 454.106 250.626 L 454.856 250.706 L 454.586 255.226 C 454.566 255.64 454.349 255.853 453.936 255.866 L 447.606 256.126 L 426.856 256.206 C 423.566 256.436 415.976 257.306 416.946 251.696 C 417.006 251.363 417.202 251.163 417.536 251.096 C 420.376 250.53 423.232 250.373 426.106 250.626 Z" style="--darkreader-inline-fill: #e9d3f4; fill: rgb(214, 214, 214); transform-origin: 435.859px 253.451px;" data-darkreader-inline-fill=""/>
  <path d="M 484.066 250.416 L 491.106 250.596 C 492.019 250.616 492.506 251.083 492.566 251.996 L 492.706 254.276 C 492.757 255.125 492.151 255.874 491.306 256.006 C 489.039 256.353 486.809 256.25 484.616 255.696 C 484.316 255.623 484.039 255.683 483.786 255.876 L 483.356 256.206 L 454.356 256.206 L 447.606 256.126 L 453.936 255.866 C 454.349 255.853 454.566 255.64 454.586 255.226 L 454.856 250.706 L 484.066 250.416 Z" style="--darkreader-inline-fill: #d8d4cf; fill: rgb(214, 214, 214); transform-origin: 470.157px 253.311px;" data-darkreader-inline-fill=""/>
  <path fill="#dc001a" d="M 426.856 256.206 L 447.606 256.126 L 454.356 256.206 C 455.406 264.686 454.546 273.846 454.596 282.416 C 454.596 283.586 454.036 284.816 454.106 286.126 L 424.106 286.126 L 426.856 256.206 Z" style="--darkreader-inline-fill: #ff324a; transform-origin: 439.493px 271.126px;" data-darkreader-inline-fill=""/>
  <path fill="#c40016" d="M 454.356 256.206 L 483.356 256.206 L 485.816 286.416 L 454.516 286.216 C 454.329 286.183 454.193 286.153 454.106 286.126 C 454.036 284.816 454.596 283.586 454.596 282.416 C 454.546 273.846 455.406 264.686 454.356 256.206 Z" style="--darkreader-inline-fill: #ff4358; transform-origin: 469.958px 271.311px;" data-darkreader-inline-fill=""/>
  <path d="M 424.106 286.126 L 454.106 286.126 C 454.193 286.153 454.329 286.183 454.516 286.216 L 454.476 335.626 L 430.856 335.706 L 419.856 335.706 C 419.569 335.28 419.249 335.19 418.896 335.436 C 418.643 335.61 418.546 335.543 418.606 335.236 L 418.956 333.496 C 419.016 333.196 419.143 332.93 419.336 332.696 C 420.136 331.706 419.556 330.586 419.676 329.606 C 420.563 322.353 421.476 312.976 422.416 301.476 C 422.849 296.19 422.719 291.343 422.026 286.936 L 424.106 286.126 Z" style="--darkreader-inline-fill: #e9d3f4; fill: rgb(214, 214, 214); transform-origin: 436.552px 310.916px;" data-darkreader-inline-fill=""/>
  <path d="M 454.516 286.216 L 485.816 286.416 L 486.356 287.456 C 487.463 302.523 488.753 317.573 490.226 332.606 C 490.316 333.496 490.806 334.476 490.266 335.456 L 454.476 335.626 L 454.516 286.216 Z" style="--darkreader-inline-fill: #d5d1cc; fill: rgb(145, 145, 145); transform-origin: 472.496px 310.921px;" data-darkreader-inline-fill=""/>
  <path fill="#c40016" d="M 490.266 335.456 L 494.716 384.596 L 454.856 384.456 L 454.356 384.376 L 454.716 337.466 C 454.716 337.153 454.459 336.901 454.146 336.906 L 431.756 337.276 C 431.396 337.283 431.176 337.113 431.096 336.766 L 430.856 335.706 L 454.476 335.626 L 490.266 335.456 Z" style="--darkreader-inline-fill: #9d0012; transform-origin: 462.786px 360.026px;" data-darkreader-inline-fill=""/>
  <path fill="#dc001a" d="M 419.856 335.706 L 430.856 335.706 L 431.096 336.766 C 431.176 337.113 431.396 337.283 431.756 337.276 L 454.146 336.906 C 454.459 336.901 454.716 337.153 454.716 337.466 L 454.356 384.376 L 415.966 384.446 C 415.613 384.446 415.443 384.273 415.456 383.926 L 415.566 381.166 L 419.856 335.706 Z" style="--darkreader-inline-fill: #ff324a; transform-origin: 435.086px 360.076px;" data-darkreader-inline-fill=""/>
  <path d="M 1066.606 468.976 L 1066.606 782.666 L 1020.786 782.666 C 1019.672 781.88 1017.106 779.72 1013.086 776.186 C 993.119 758.66 970.706 741.16 945.846 723.686 C 910.466 698.826 856.366 667.396 811.486 681.976 C 798.126 686.316 785.516 693.606 773.106 699.956 C 715.016 633.446 652.926 568.526 584.516 512.526 C 555.186 488.506 525.036 467.616 492.146 450.806 C 491.766 450.613 491.666 450.326 491.846 449.946 C 492.292 449.006 493.129 448.426 494.356 448.206 L 500.356 446.876 C 557.136 435.883 612.472 419.906 666.366 398.946 C 688.639 390.293 713.632 380.193 741.346 368.646 C 771.686 356.016 804.566 343.606 838.336 346.536 C 894.626 351.406 945.646 381.486 989.766 414.766 C 1011.999 431.533 1033.416 449.343 1054.016 468.196 C 1054.396 468.544 1054.894 468.743 1055.416 468.756 L 1066.606 468.976 Z" style="--darkreader-inline-fill: #009fcb; fill: rgb(0, 64, 82); transform-origin: 779.183px 564.384px;" data-darkreader-inline-fill=""/>
  <path d="M -504.964 384.846 L -504.554 385.536 C -504.387 385.83 -504.154 386.06 -503.854 386.226 C -499.107 388.9 -495.551 390.973 -493.184 392.446 C -439.014 426.076 -368.794 470.256 -304.154 501.176 C -262.614 521.036 -219.951 534.21 -176.164 540.696 C -130.304 547.486 -81.194 546.716 -33.644 542.156 C 55.156 533.636 141.516 515.026 225.166 483.986 C 239.419 478.7 253.586 473.196 267.666 467.476 C 270.426 466.356 273.073 465.016 275.606 463.456 L 277.296 463.426 C 277.623 463.426 277.936 463.36 278.236 463.226 C 300.276 453.753 321.003 445.42 340.416 438.226 C 363.206 429.776 386.986 424.196 411.786 426.636 C 424.193 427.83 436.336 430.113 448.216 433.486 C 449.096 433.736 449.946 433.646 450.856 433.706 C 450.569 433.733 450.339 433.813 450.166 433.946 C 449.813 434.206 449.856 434.366 450.296 434.426 C 453.516 434.873 455.849 435.38 457.296 435.946 C 465.883 439.313 474.486 442.623 483.106 445.876 C 483.586 447.263 484.586 447.763 486.106 447.376 C 488.056 449.516 491.846 448.546 494.356 448.206 C 493.129 448.426 492.293 449.006 491.846 449.946 C 491.666 450.326 491.766 450.613 492.146 450.806 C 525.036 467.616 555.186 488.506 584.516 512.526 C 652.926 568.526 715.016 633.446 773.106 699.956 C 711.946 735.666 646.956 759.496 577.786 771.556 C 556.379 775.283 534.816 776.75 513.096 775.956 C 459.186 773.986 408.076 749.486 360.306 726.686 C 340.939 717.446 321.559 708.23 302.166 699.036 C 292.693 694.543 283.833 690.77 275.586 687.716 C 192.876 657.106 128.456 714.376 91.526 781.426 C 91.336 781.776 91.376 782.276 91.296 782.666 L -533.394 782.666 L -533.394 368.856 L -533.164 368.606 C -532.931 368.353 -532.667 368.32 -532.374 368.506 C -523.467 374.246 -514.331 379.693 -504.964 384.846 Z" style="--darkreader-inline-fill: #0085aa; fill: rgb(28, 111, 134); transform-origin: 119.856px 575.527px;" data-darkreader-inline-fill=""/>
  <path d="M 415.566 381.166 L 415.456 383.926 C 415.443 384.273 415.613 384.446 415.966 384.446 L 454.356 384.376 L 454.856 384.456 C 454.569 400.41 454.486 416.363 454.606 432.316 C 454.606 433.036 454.446 433.066 454.106 433.626 L 450.856 433.706 C 449.946 433.646 449.096 433.736 448.216 433.486 C 436.336 430.113 424.193 427.83 411.786 426.636 C 412.353 414.216 413.023 401.816 413.796 389.436 C 413.803 389.356 413.756 388.24 413.656 386.086 C 413.569 384.2 414.206 382.56 415.566 381.166 Z" style="--darkreader-inline-fill: #e9d3f4; fill: rgb(214, 214, 214); transform-origin: 433.321px 407.436px;" data-darkreader-inline-fill=""/>
  <path d="M 454.856 384.456 L 494.716 384.596 L 499.146 433.656 L 454.106 433.626 C 454.446 433.066 454.606 433.036 454.606 432.316 C 454.486 416.363 454.569 400.41 454.856 384.456 Z" style="--darkreader-inline-fill: #d5d1cc; fill: rgb(145, 145, 145); transform-origin: 476.626px 409.056px;" data-darkreader-inline-fill=""/>
  <path fill="#c40016" d="M 450.856 433.706 L 454.106 433.626 L 499.146 433.656 L 500.356 446.876 L 494.356 448.206 C 491.846 448.546 488.056 449.516 486.106 447.376 L 483.106 445.876 C 474.486 442.623 465.883 439.313 457.296 435.946 C 455.849 435.38 453.516 434.873 450.296 434.426 C 449.856 434.366 449.813 434.206 450.166 433.946 C 450.339 433.813 450.569 433.733 450.856 433.706 Z" style="--darkreader-inline-fill: #ff4358; transform-origin: 475.143px 441.174px;" data-darkreader-inline-fill=""/>
  <path fill="#4597b2" d="M 483.106 445.876 L 486.106 447.376 C 484.586 447.763 483.586 447.263 483.106 445.876 Z" style="--darkreader-inline-fill: #5ea8c0; transform-origin: 484.606px 446.689px;" data-darkreader-inline-fill=""/>
  <path d="M 1020.786 782.666 L 91.296 782.666 C 91.376 782.276 91.336 781.776 91.526 781.426 C 128.456 714.376 192.876 657.106 275.586 687.716 C 283.832 690.77 292.692 694.543 302.166 699.036 C 321.559 708.23 340.939 717.446 360.306 726.686 C 408.076 749.486 459.186 773.986 513.096 775.956 C 534.816 776.75 556.379 775.283 577.786 771.556 C 646.956 759.496 711.946 735.666 773.106 699.956 C 785.516 693.606 798.126 686.316 811.486 681.976 C 856.366 667.396 910.466 698.826 945.846 723.686 C 970.706 741.16 993.119 758.66 1013.086 776.186 C 1017.106 779.72 1019.672 781.88 1020.786 782.666 Z" style="--darkreader-inline-fill: #046f8c; fill: rgb(52, 110, 126); transform-origin: 556.041px 730.466px;" data-darkreader-inline-fill=""/>
  <rect x="432.5" y="176.895" width="45" height="4.06" style="fill: rgb(214, 214, 214); paint-order: fill; stroke: rgb(0, 0, 0); stroke-opacity: 0;" rx="0.181" ry="0.181"/>
</svg>